<svg width="141" height="181" viewBox="0 0 141 181" fill="none" xmlns="http://www.w3.org/2000/svg">
<g clip-path="url(#clip0_4750_4810)">
<path d="M59.3959 14.9307C58.4337 14.3695 58.1531 13.1267 58.7544 12.1645C59.3558 11.2424 60.5986 10.9618 61.5207 11.5631L75.392 20.3029C76.3542 20.9042 76.6348 22.147 76.0335 23.0691C75.6726 23.6705 74.9911 23.9912 74.3497 23.9912C73.9888 23.9912 73.5879 23.911 73.2672 23.7106L59.3959 14.9307Z" fill="#FFFDF7"/>
<path d="M82.4881 20.7833L79.0403 2.90294C78.8398 1.7804 79.5214 0.738047 80.6038 0.537595C81.6863 0.337142 82.7687 1.01868 82.9692 2.10113L86.457 20.0216C86.6575 21.104 85.9359 22.1464 84.8534 22.3869H84.4525C83.5304 22.3869 82.6885 21.7455 82.4881 20.7833Z" fill="#FFFDF7"/>
<path d="M93.7536 20.9429C93.3527 20.9429 92.9117 20.7825 92.5509 20.5019C91.6689 19.8203 91.5085 18.5775 92.1901 17.6955L101.972 5.18729C102.654 4.3053 103.897 4.18502 104.779 4.86656C105.661 5.5481 105.781 6.79091 105.099 7.6729L95.3572 20.1411C94.9563 20.6622 94.355 20.9429 93.7536 20.9429Z" fill="#FFFDF7"/>
<path d="M111.434 20.9838C115.002 16.7743 120.213 14.5693 125.746 14.5693C131.038 14.6896 135.889 17.1351 139.056 21.3045C141.181 24.1911 140.9 27.8393 138.575 30.2848C133.804 35.2962 118.048 52.4549 116.204 63.7204C117.327 64.1614 118.409 64.7627 119.412 65.4843C122.058 67.3686 123.862 70.4556 124.583 74.1439L126.307 82.9237C128.672 84.5274 130.597 86.8125 131.759 89.6189L133.724 94.2694C136.41 100.844 136.089 108.221 132.882 114.475C129.795 120.489 125.185 125.66 119.572 129.389C114.079 133.037 96.2392 138.81 93.4329 139.091C76.9155 140.614 63.6456 145.184 53.3824 150.476C53.5027 153.483 53.4225 156.37 53.1819 159.056C52.2198 169.159 48.6517 176.776 42.6782 179.462C37.7872 181.707 32.0542 180.224 26.3614 175.934C25.1987 175.052 23.996 174.009 22.8334 172.887C22.7131 172.847 22.6329 172.767 22.5527 172.686C22.4726 172.606 22.0717 172.165 21.4302 171.444H21.3901C18.6239 168.517 15.9378 164.989 13.4522 160.94C12.8909 160.018 12.2896 159.096 11.7684 158.094H11.7283C10.5657 156.129 9.48323 154.004 8.48096 151.759C8.48096 151.719 8.44087 151.679 8.40078 151.639C8.40078 151.599 8.40078 151.559 8.36069 151.519C8.03997 150.757 7.67915 150.035 7.35843 149.274C7.27825 149.153 7.23816 149.073 7.19807 148.953C5.7949 145.946 4.512 142.578 3.38946 139.01C3.38946 138.93 3.34937 138.89 3.34937 138.81C3.34937 138.69 3.2291 138.489 3.2291 138.289C3.2291 138.289 3.2291 138.289 3.2291 138.209V138.128C2.18675 134.641 1.42503 131.433 0.903849 128.346C0.663305 127.224 0.502943 126.061 0.382671 124.939C0.382671 124.778 0.30249 124.618 0.30249 124.417C0.30249 123.455 0.98403 122.613 1.9462 122.453C20.2676 117.201 36.5844 109.464 51.7387 98.7194C53.9437 97.1559 55.9883 95.6725 57.9527 94.109C56.1486 87.6143 58.1532 78.9548 64.0064 68.2907C62.2424 65.4042 54.9058 55.0207 46.5269 48.526C44.6827 47.0828 43.5602 44.9179 43.48 42.5525C43.3998 40.0669 44.362 37.7016 46.1661 36.0579C52.4202 30.5254 61.5208 30.2447 68.1357 35.1759C74.7507 40.1471 82.6886 47.6841 85.7756 57.0252C90.9071 49.1675 102.734 31.4876 111.514 21.0239L111.434 20.9838Z" fill="#FFFDF7"/>
<path d="M53.1819 159.056C52.2197 169.158 48.6516 176.776 42.6781 179.462C37.7871 181.707 32.0541 180.223 26.3613 175.934C25.1987 175.052 23.9959 174.009 22.8333 172.887C22.3522 172.446 21.8711 171.965 21.4301 171.444H21.3901C18.6238 168.517 15.9377 164.989 13.4521 160.94C12.8909 160.018 12.2895 159.096 11.7683 158.094H11.7282C10.6458 156.209 9.60343 154.165 8.60116 152.04L8.40071 151.639C8.40071 151.639 8.32053 151.479 8.32053 151.398C7.9998 150.717 7.67908 149.995 7.35836 149.274C7.27817 149.153 7.23808 149.073 7.19799 148.953C6.27591 146.828 5.35383 144.583 4.59211 142.298C4.1912 141.135 3.83039 140.013 3.50966 138.85C2.86821 136.845 2.30694 134.801 1.78577 132.836L3.54975 131.674C4.03084 133.759 4.55202 135.763 5.11328 137.727C5.11328 137.808 5.15337 137.888 5.19346 137.968C5.19346 138.128 5.27365 138.249 5.31374 138.369C6.39618 141.857 7.63899 145.144 9.04216 148.191C14.1738 161.02 23.9959 171.323 23.9959 171.323C23.9959 171.323 33.1366 158.374 53.2621 148.271C53.2621 149.033 53.3422 149.795 53.3823 150.516C53.5026 153.523 53.4224 156.41 53.1819 159.096V159.056Z" fill="#1E1E1E"/>
<path d="M132.882 114.476C129.795 120.49 125.185 125.661 119.572 129.39C114.079 133.038 96.2392 138.811 93.4329 139.092C76.9156 140.615 63.6456 145.185 53.3824 150.477C34.4997 160.139 25.76 172.247 25.6397 172.447C25.2789 172.928 24.7577 173.249 24.1564 173.289H23.996C23.555 173.289 23.1541 173.169 22.8334 172.888C22.7131 172.848 22.6329 172.768 22.5527 172.688C22.4726 172.607 22.0717 172.166 21.4302 171.445H21.3901C19.4658 169.2 15.4567 164.349 11.7684 158.095H11.7283C10.5657 156.13 9.48323 154.005 8.48096 151.76C8.48096 151.72 8.44087 151.68 8.40078 151.64C8.40078 151.6 8.40078 151.56 8.36069 151.52C8.03997 150.758 7.67915 150.036 7.35843 149.275C7.27825 149.154 7.23816 149.074 7.19807 148.954C5.7949 145.947 4.512 142.58 3.38946 139.011C3.38946 138.931 3.34937 138.891 3.34937 138.811C3.34937 138.691 3.2291 138.49 3.2291 138.29C3.2291 138.29 3.2291 138.29 3.2291 138.21V138.129C2.18675 134.642 1.42503 131.434 0.903849 128.347C0.663305 127.225 0.502943 126.062 0.382671 124.94C0.382671 124.779 0.30249 124.619 0.30249 124.419C0.30249 123.456 0.98403 122.614 1.9462 122.454C20.2676 117.202 36.5844 109.465 51.7387 98.7205C53.9437 97.1569 55.9883 95.6736 57.9527 94.11C58.3536 93.8695 58.7144 93.5488 59.0753 93.2681C59.9172 92.5866 61.2001 92.7069 61.8816 93.5889C62.042 93.7492 62.1221 93.9898 62.2023 94.1902C62.4829 94.992 62.2023 95.874 61.5609 96.3952C60.9194 96.9164 60.278 97.4376 59.5964 97.9186C57.8324 99.3218 55.9883 100.645 54.0238 102.008C38.9097 112.712 22.7131 120.53 4.55209 125.862C4.63227 126.463 4.71245 127.064 4.83272 127.626C5.3539 130.633 6.11562 133.72 7.11789 137.127C7.15798 137.207 7.15798 137.288 7.19807 137.368C7.19807 137.448 7.23816 137.568 7.23816 137.648V137.849C8.28051 141.216 9.48323 144.424 10.8463 147.35C14.6148 156.732 20.9491 164.79 23.8757 168.197C29.5686 161.302 51.017 138.971 93.072 135.123C94.9563 134.962 112.396 129.39 117.327 126.102C122.418 122.735 126.548 118.084 129.314 112.672C132 107.46 132.241 101.326 129.995 95.8339L128.071 91.1834C125.986 86.2122 120.694 83.486 115.443 84.7689L103.375 87.6154C98.5244 88.778 95.2369 93.4285 95.718 98.3997C96.0788 101.928 97.7226 105.055 100.248 107.18C102.253 108.863 104.819 109.906 107.424 110.106C109.028 110.226 110.632 110.026 112.235 109.545C113.959 109.024 115.242 107.5 115.483 105.736C115.523 105.616 115.563 105.496 115.563 105.375V103.371C115.483 102.369 116.164 101.567 117.046 101.366H117.447C118.61 101.366 119.492 102.168 119.532 103.291V105.656C119.291 109.264 116.806 112.351 113.398 113.434C111.313 114.075 109.188 114.276 107.144 114.155C103.696 113.875 100.328 112.512 97.6825 110.307C94.3549 107.5 92.1901 103.411 91.7491 99.0813C91.4684 96.1547 92.0297 93.3082 93.3126 90.9028C93.954 89.66 94.7959 88.5375 95.7581 87.5352C97.5622 85.7311 99.8474 84.368 102.453 83.7667L114.521 80.9202C117.006 80.3189 119.492 80.359 121.817 80.9202C123.421 81.3612 124.944 82.0428 126.307 82.9649C128.672 84.5685 130.597 86.8537 131.759 89.66L133.724 94.3105C136.41 100.885 136.089 108.262 132.882 114.516V114.476Z" fill="#1E1E1E"/>
<path d="M53.1819 159.056C52.2197 169.158 48.6516 176.776 42.6781 179.462C37.7871 181.707 32.0541 180.223 26.3613 175.934C25.1987 175.052 23.9959 174.009 22.8333 172.887C22.3522 172.446 21.8711 171.965 21.4301 171.444H21.3901C18.6238 168.517 15.9377 164.989 13.4521 160.94C12.8909 160.018 12.2895 159.096 11.7683 158.094H11.7282C10.6458 156.209 9.60343 154.165 8.60116 152.04L8.40071 151.639C8.40071 151.639 8.32053 151.479 8.32053 151.398C7.9998 150.717 7.67908 149.995 7.35836 149.274C7.27817 149.153 7.23808 149.073 7.19799 148.953C6.27591 146.828 5.35383 144.583 4.59211 142.298C4.1912 141.135 3.83039 140.013 3.50966 138.85C2.86821 136.845 2.30694 134.801 1.78577 132.836L3.54975 131.674C4.03084 133.759 4.55202 135.763 5.11328 137.727C5.11328 137.808 5.15337 137.888 5.19346 137.968C5.19346 138.128 5.27365 138.249 5.31374 138.369C6.39618 141.857 7.63899 145.144 9.04216 148.191C14.1738 161.02 23.9959 171.323 23.9959 171.323C23.9959 171.323 33.1366 158.374 53.2621 148.271C53.2621 149.033 53.3422 149.795 53.3823 150.516C53.5026 153.523 53.4224 156.41 53.1819 159.096V159.056Z" fill="#1E1E1E"/>
<path d="M132.882 114.476C129.795 120.49 125.185 125.661 119.572 129.39C114.079 133.038 96.2392 138.811 93.4329 139.092C76.9156 140.615 63.6456 145.185 53.3824 150.477C34.4997 160.139 25.76 172.247 25.6397 172.447C25.2789 172.928 24.7577 173.249 24.1564 173.289H23.996C23.555 173.289 23.1541 173.169 22.8334 172.888C22.7131 172.848 22.6329 172.768 22.5527 172.688C22.4726 172.607 22.0717 172.166 21.4302 171.445H21.3901C19.4658 169.2 15.4567 164.349 11.7684 158.095H11.7283C10.5657 156.13 9.48323 154.005 8.48096 151.76C8.48096 151.72 8.44087 151.68 8.40078 151.64C8.40078 151.6 8.40078 151.56 8.36069 151.52C8.03997 150.758 7.67915 150.036 7.35843 149.275C7.27825 149.154 7.23816 149.074 7.19807 148.954C5.7949 145.947 4.512 142.58 3.38946 139.011C3.38946 138.931 3.34937 138.891 3.34937 138.811C3.34937 138.691 3.2291 138.49 3.2291 138.29C3.2291 138.29 3.2291 138.29 3.2291 138.21V138.129C2.18675 134.642 1.42503 131.434 0.903849 128.347C0.663305 127.225 0.502943 126.062 0.382671 124.94C0.382671 124.779 0.30249 124.619 0.30249 124.419C0.30249 123.456 0.98403 122.614 1.9462 122.454C20.2676 117.202 36.5844 109.465 51.7387 98.7205C53.9437 97.1569 55.9883 95.6736 57.9527 94.11C58.3536 93.8695 58.7144 93.5488 59.0753 93.2681C59.9172 92.5866 61.2001 92.7069 61.8816 93.5889C62.042 93.7492 62.1221 93.9898 62.2023 94.1902C62.4829 94.992 62.2023 95.874 61.5609 96.3952C60.9194 96.9164 60.278 97.4376 59.5964 97.9186C57.8324 99.3218 55.9883 100.645 54.0238 102.008C38.9097 112.712 22.7131 120.53 4.55209 125.862C4.63227 126.463 4.71245 127.064 4.83272 127.626C5.3539 130.633 6.11562 133.72 7.11789 137.127C7.15798 137.207 7.15798 137.288 7.19807 137.368C7.19807 137.448 7.23816 137.568 7.23816 137.648V137.849C8.28051 141.216 9.48323 144.424 10.8463 147.35C14.6148 156.732 20.9491 164.79 23.8757 168.197C29.5686 161.302 51.017 138.971 93.072 135.123C94.9563 134.962 112.396 129.39 117.327 126.102C122.418 122.735 126.548 118.084 129.314 112.672C132 107.46 132.241 101.326 129.995 95.8339L128.071 91.1834C125.986 86.2122 120.694 83.486 115.443 84.7689L103.375 87.6154C98.5244 88.778 95.2369 93.4285 95.718 98.3997C96.0788 101.928 97.7226 105.055 100.248 107.18C102.253 108.863 104.819 109.906 107.424 110.106C109.028 110.226 110.632 110.026 112.235 109.545C113.959 109.024 115.242 107.5 115.483 105.736C115.523 105.616 115.563 105.496 115.563 105.375V103.371C115.483 102.369 116.164 101.567 117.046 101.366H117.447C118.61 101.366 119.492 102.168 119.532 103.291V105.656C119.291 109.264 116.806 112.351 113.398 113.434C111.313 114.075 109.188 114.276 107.144 114.155C103.696 113.875 100.328 112.512 97.6825 110.307C94.3549 107.5 92.1901 103.411 91.7491 99.0813C91.4684 96.1547 92.0297 93.3082 93.3126 90.9028C93.954 89.66 94.7959 88.5375 95.7581 87.5352C97.5622 85.7311 99.8474 84.368 102.453 83.7667L114.521 80.9202C117.006 80.3189 119.492 80.359 121.817 80.9202C123.421 81.3612 124.944 82.0428 126.307 82.9649C128.672 84.5685 130.597 86.8537 131.759 89.66L133.724 94.3105C136.41 100.885 136.089 108.262 132.882 114.516V114.476Z" fill="#1E1E1E"/>
<path d="M138.575 30.2848C133.804 35.2962 118.048 52.4549 116.204 63.7204C116.044 64.8028 114.961 65.5645 113.919 65.3641C112.796 65.2037 112.075 64.1614 112.235 63.0789V62.8384C114.4 50.8112 129.274 34.1335 135.648 27.5186C136.61 26.5163 136.771 24.9929 136.009 23.9505C133.403 20.5428 129.674 18.6586 125.585 18.5784C121.336 18.418 117.246 20.3023 114.48 23.5897C103.175 37.0201 86.6573 62.7983 86.4969 63.0789C86.0159 63.7605 85.174 64.1213 84.3721 63.9609C83.5302 63.7605 82.9289 63.0789 82.8086 62.2771C81.3253 51.5729 71.3828 42.7129 65.6098 38.343C60.5183 34.5344 53.5425 34.7349 48.9722 38.784C47.8095 39.8264 47.3285 41.0692 47.3686 42.3521C47.4086 43.5548 47.9298 44.5972 48.8519 45.3188C57.1506 51.7734 68.5765 66.1659 68.0954 68.6916C68.0954 68.9321 67.9751 69.1727 67.8147 69.3731C60.5583 82.3625 60.5583 89.699 61.8412 93.5477L62.0818 94.1491C63.3246 97.196 65.4093 98.1582 65.4895 98.1982C66.4918 98.6392 66.9728 99.8019 66.5318 100.844C66.2111 101.606 65.4895 102.047 64.7278 102.047C64.4471 102.047 64.2066 102.047 63.966 101.887C63.8458 101.846 61.4002 100.844 59.4759 97.8775C58.9948 97.0757 58.5137 96.1536 58.1128 95.0311C57.9926 94.7104 57.9124 94.3896 57.8322 94.0689C56.0281 87.5742 58.0326 78.9147 63.8859 68.2506C62.1219 65.3641 54.7853 54.9806 46.4064 48.486C44.5622 47.0427 43.4397 44.8778 43.3595 42.5125C43.2793 40.0268 44.2415 37.6615 46.0456 36.0178C52.2997 30.4853 61.4002 30.2047 68.0152 35.1358C74.6301 40.107 82.5681 47.6441 85.655 56.9851C90.7866 49.1274 102.613 31.4475 111.393 20.9838C114.961 16.7743 120.173 14.5693 125.706 14.5693C130.997 14.6896 135.848 17.1351 139.016 21.3046C141.14 24.1911 140.86 27.8393 138.534 30.2848H138.575Z" fill="#1E1E1E"/>
<path d="M126.467 83.806C126.668 84.8884 125.946 85.9308 124.864 86.1312C123.781 86.3317 122.739 85.6501 122.539 84.5677L121.817 80.8794L120.654 74.9059C120.133 72.2198 118.85 70.0148 117.046 68.6918C115.282 67.4089 113.157 66.7675 110.952 66.8076C107.304 66.9279 103.856 67.2887 100.729 67.8099C94.2747 68.9324 89.7445 75.1865 90.7067 81.7614C91.1076 84.5276 93.1121 86.7727 95.7581 87.4542C96.0387 87.5344 96.3995 87.6146 96.7202 87.6547C97.8027 87.775 98.6045 88.7772 98.4441 89.8997C98.3239 90.902 97.482 91.6637 96.4797 91.6637C96.3995 91.6637 96.3193 91.6637 96.2392 91.6637C95.1968 91.5435 94.2346 91.3029 93.3125 90.8619C89.8247 89.4588 87.2589 86.2515 86.7377 82.3627C85.4949 73.6631 91.4684 65.4044 100.048 63.9211C103.375 63.3598 106.983 62.999 110.832 62.8386C111.313 62.8386 111.794 62.8386 112.275 62.8386C113.638 62.9589 114.961 63.2395 116.204 63.7206C117.327 64.1616 118.409 64.763 119.412 65.4846C122.057 67.3689 123.862 70.4558 124.583 74.1442L126.307 82.924L126.467 83.806Z" fill="#1E1E1E"/>
<path d="M73.7883 117.123C72.746 117.123 71.864 116.401 71.8239 115.318C71.3829 104.414 76.5145 97.1173 85.8155 95.0727C86.8979 94.8322 87.9804 95.5137 88.2209 96.5961C88.4615 97.6786 87.7799 98.761 86.6975 99.0016C77.2762 101.046 75.5924 108.784 75.8329 114.877C75.873 116 75.0311 117.042 73.9086 117.082H73.7883V117.123Z" fill="#1E1E1E"/>
<path d="M111.393 106.78C110.552 106.78 109.79 106.258 109.509 105.417C109.148 104.374 109.71 103.212 110.752 102.891C111.153 102.771 120.414 99.6034 126.548 101.528C127.59 101.848 128.191 102.971 127.871 104.013C127.55 105.056 126.427 105.657 125.385 105.336C121.336 104.094 114.4 105.898 112.075 106.659C111.875 106.74 111.634 106.78 111.434 106.78H111.393Z" fill="#1E1E1E"/>
<path d="M86.457 20.0216C86.6575 21.104 85.9359 22.1464 84.8534 22.3869H84.4525C83.5304 22.3869 82.6885 21.7455 82.4881 20.7833L79.0403 2.90294C78.8398 1.7804 79.5214 0.738047 80.6038 0.537595C81.6863 0.337142 82.7687 1.01868 82.9692 2.10113L86.457 20.0216Z" fill="#1E1E1E"/>
<path d="M76.0335 23.0691C75.6726 23.6705 74.9911 23.9912 74.3497 23.9912C73.9888 23.9912 73.5879 23.911 73.2672 23.7106L59.3959 14.9307C58.4337 14.3695 58.1531 13.1267 58.7544 12.1645C59.3558 11.2424 60.5986 10.9618 61.5207 11.5631L75.392 20.3029C76.3542 20.9042 76.6348 22.147 76.0335 23.0691Z" fill="#1E1E1E"/>
<path d="M105.099 7.6729L95.3572 20.1411C94.9563 20.6622 94.355 20.9429 93.7536 20.9429C93.3527 20.9429 92.9117 20.7825 92.5509 20.5019C91.6689 19.8203 91.5085 18.5775 92.1901 17.6955L101.972 5.18729C102.654 4.3053 103.897 4.18502 104.779 4.86656C105.661 5.5481 105.781 6.79091 105.099 7.6729Z" fill="#1E1E1E"/>
</g>
<defs>
<clipPath id="clip0_4750_4810">
<rect width="140.194" height="180" fill="white" transform="translate(0.302246 0.502441)"/>
</clipPath>
</defs>
</svg>
