<?xml version="1.0" encoding="UTF-8"?>
<svg id="Calque_1" data-name="Calque 1" xmlns="http://www.w3.org/2000/svg" width="298.96" height="460" xmlns:xlink="http://www.w3.org/1999/xlink" viewBox="0 0 298.96 460">
  <defs>
    <clipPath id="clippath">
      <rect x="0" y="0" width="298.96" height="460" fill="none" stroke-width="0"/>
    </clipPath>
  </defs>
  <g clip-path="url(#clippath)">
    <g>
      <path d="m259.64,224.64c-2.13,6.49-14.04,39.02-52.79,73.85,2.58,3.55,5.33,8.89,3.29,13.86-1.33,3.2-4,4.98-6.93,5.95l-2.22,2.76c3.47,6.49,7.91,17.51,3.64,23.55-.62.89-1.6,1.78-2.93,2.49l-.18.18c-1.69,2.04-9.42,13.51-17.06,24.97-.98,1.51-2.04,3.02-3.11,4.62,14.31,18.49,19.73,37.86,12.97,53.95-9.15,21.77-38.57,31.91-74.39,28.53-1.07-.09-2.22-.18-3.29-.36-1.87-.18-3.91-.44-5.96-.8-7.46-1.07-15.29-2.76-23.11-4.98h-.09c-.27-.18-.62-.18-.89-.36-.27,0-.36-.18-.53-.18-7.02-1.96-14.31-4.53-21.42-7.55-7.11-2.93-13.86-6.31-20.26-9.78-11.73-6.76-22.13-14.04-31.02-22.04-3.47-2.93-6.67-6.04-9.51-9.33-.44-.44-.89-.89-1.33-1.42l-.71-.71v-.18c-.09-.09-.27-.36-.27-.36l-.44-.44c-1.33-1.51-1.51-3.82-.27-5.51,20.97-29.24,35.46-64.17,43.9-88.34,9.07-25.51,13.33-44.61,13.33-44.79.35-1.6,1.69-2.93,3.29-3.38.89-.18,1.78-.09,2.58.27l8.36-25.6v-.18c0-1.07-.18-2.93-.36-5.51-1.24-17.95-4.53-65.86,14.66-101.58,6.4-12,19.82-16.97,33.95-13.24,5.87-15.73,30.57-76.34,74.92-108.78,7.02-5.15,16.35-5.69,24.09-1.16,9.51,5.69,15.91,15.29,17.42,26.4,1.51,11.2-2.04,22.4-9.86,30.57-16.09,16.97-35.11,39.9-46.04,63.37,20.53-25.77,56.7-68.17,82.83-81.59,7.02-3.73,15.73-2.4,22.04,3.38,8.8,8.09,13.51,19.55,12.98,31.46-.62,11.82-6.31,22.75-15.82,29.95-22.04,16.71-38.84,31.11-49.32,42.22,8.09-1.42,16.62.71,23.02,6.31,5.33,4.71,10.66,10.66,15.82,17.69,7.38,10.13,7.73,23.28.98,33.77-3.73,5.78-8.62,11.91-13.86,18.04h-.09Z" fill="#fffdf7" stroke-width="0"/>
      <path d="m4.49,397.95c3.29,3.73,6.84,7.29,10.75,10.75,8.89,8,19.29,15.29,31.02,21.95,6.4,3.55,13.15,6.84,20.26,9.86,7.11,2.93,14.4,5.6,21.42,7.55.18.09.27.18.53.18.27.18.98.35.98.35,7.82,2.22,15.55,3.91,23.11,4.98,1.96.36,4,.62,5.87.8.36-.09.8-.18,1.16-.36,11.55-10.04,39.46-51.64,58.83-80.79.27.36.53.62.8.89.8.89,1.51,1.87,2.13,2.76,14.31,18.49,19.73,37.86,12.97,53.95-9.15,21.77-38.57,31.91-74.39,28.53-1.07-.09-2.22-.18-3.29-.36-1.87-.18-3.91-.44-5.96-.8-7.46-1.07-15.29-2.76-23.11-4.98h-.09c-.27-.18-.62-.18-.89-.36-.27,0-.36-.18-.53-.18-7.02-1.96-14.31-4.53-21.42-7.55-7.11-2.93-13.87-6.31-20.26-9.78-11.73-6.75-22.13-14.04-31.02-22.04-3.47-2.93-6.67-6.04-9.51-9.33-.44-.45-.89-.89-1.33-1.42l-.71-.71v-.18c-.09-.09-.27-.36-.27-.36l2.93-3.38Z" fill="#1e1e1e" stroke-width="0"/>
      <path d="m1.2,400.97c-1.33-1.51-1.51-3.82-.27-5.51,20.97-29.24,35.46-64.17,43.9-88.34,9.07-25.51,13.33-44.62,13.33-44.79.36-1.6,1.69-2.93,3.29-3.38.89-.18,1.78-.09,2.58.27.71.27,1.42.71,1.96,1.24l3.47,4.27c1.51,1.95,1.24,4.71-.62,6.31-1.15.89-2.58,1.15-3.82.89-.09.35-.18.8-.27,1.15-2.13,8.09-5.86,21.33-11.46,37.06-8.35,23.82-22.57,58.12-43.01,87.54,2.58,2.84,5.24,5.42,8,7.82,8.62,7.64,18.75,14.84,30.22,21.33,7.02,3.82,13.51,7.02,19.91,9.69,7.2,3.02,14.22,5.51,20.89,7.38h.36c.27.09.89.44.89.44h.18c7.82,2.22,15.37,3.82,22.66,4.89,1.51.27,2.93.44,4.36.62,12.18-11.46,41.68-55.81,59.63-82.83,6.4-9.51,10.49-15.64,13.24-19.64,4.8-6.93,5.33-7.11,6.67-7.64,2.22-.98,4.8.18,5.78,2.4.71,1.78.18,3.82-1.24,4.98l-.18.18c-1.69,2.04-9.42,13.51-17.06,24.97-.98,1.51-2.04,3.02-3.11,4.62-19.64,29.42-47.01,70.21-58.83,80.52-.27.18-.53.53-.89.53-.8.45-1.6.71-2.13.71-.36.09-1.07.18-1.07.18h-.36c-2.04-.18-4.18-.53-6.13-.89-7.38-.98-15.2-2.67-23.11-4.89-.44,0-.62,0-1.16-.36-.09,0-.27-.09-.27-.09-.27,0-.44-.09-.71-.27-7.02-1.96-14.4-4.53-21.95-7.73-6.67-2.76-13.42-6.04-20.8-10.04-12-6.93-22.75-14.49-31.73-22.48-2.93-2.49-5.69-5.15-8.35-8.09-.45-.44-.89-.89-1.33-1.42-.27-.27-.53-.53-.8-.89-.09-.09-.27-.36-.27-.36l-.44-.45.09.09Z" fill="#1e1e1e" stroke-width="0"/>
      <path d="m61.72,266.15h-.09c-.44,1.33-.27,2.84.62,4,.18.27.98,1.33,2.31,2.93,10.04,12.44,52.17,60.26,112.34,71.81l1.87.36h.98c1.33,0,2.67-.62,3.47-1.69l4.53-5.69,7.11-9.07,6.13-7.73,2.22-2.76c2.93-.98,5.6-2.76,6.93-5.96,2.04-4.98-.71-10.31-3.29-13.86-1.33-1.96-2.67-3.29-3.29-3.91-1.16-1.24-2.93-1.6-4.44-1.07-.62.18-1.16.53-1.69,1.07-.36.36-.53.62-.71,1.07-.98,1.6-.8,3.82.62,5.24,1.15,1.15,2.13,2.4,2.84,3.55,1.33,2.04,2.04,3.82,1.78,4.53,0,0-.36.62-2.13,1.16h-.53c-1.33.35-3.2.62-6.04.62h-1.07c-2.93-.09-6.75-1.07-11.11-2.67-29.68-10.67-87.01-50.3-99.89-74.3-.27-.35-.44-.71-.62-1.07-.8-1.6-2.4-2.58-4.36-2.49-1.78.18-3.29,1.33-3.91,3.11v.18s-8.35,25.6-8.35,25.6l-2.22,6.93v.09Zm9.15.36l7.02-21.51c19.46,25.42,71.72,62.03,102.03,72.08.27.18.62.27.98.36,3.73,1.16,7.11,1.95,10.04,2.22l-12.97,16.26c-57.68-11.38-99.1-59.46-107.09-69.41Z" fill="#1e1e1e" stroke-width="0"/>
      <path d="m175.48,339.92c-.44,2.4,1.07,4.62,3.38,5.24h.18s11.55,2.22,11.55,2.22l2.58.53c1.24.27,2.49.45,3.56.45,2.13,0,3.82-.53,5.07-1.24,1.33-.71,2.31-1.6,2.93-2.49,4.27-6.04-.18-17.06-3.64-23.55-.44-.98-.98-1.96-1.42-2.67-1.24-2.13-3.91-2.84-6.04-1.6-2.13,1.24-2.93,3.91-1.69,6.04,1.15,1.87,2.13,3.91,3.02,5.96,2.04,4.8,3.2,9.24,2.49,10.66h-.53c-.44,0-1.07-.09-2.04-.27l-7.02-1.33-7.11-1.42c-2.4-.53-4.8,1.07-5.24,3.47Z" fill="#1e1e1e" stroke-width="0"/>
      <path d="m162.5,256.82c-2.4-.8-3.64-3.29-2.84-5.6,11.02-33.06-11.29-50.39-12.26-51.1-1.96-1.51-2.4-4.27-.89-6.22,1.51-1.96,4.27-2.31,6.22-.89.27.27,28.53,21.77,15.37,61.06-.62,1.87-2.31,3.02-4.18,3.02-.45,0-.98-.09-1.42-.27Z" fill="#1e1e1e" stroke-width="0"/>
      <path d="m72.21,233.27c0-1.07-.18-2.93-.35-5.51-1.25-17.95-4.53-65.85,14.66-101.58,6.4-12,19.82-16.97,33.95-13.24,2.22.53,4.53,1.33,6.84,2.4.53.27.98.44,1.51.71,18.4,8.53,27.19,15.2,36.53,22.31.18.18.44.36.62.53,2.84,2.13,5.78,4.35,9.15,6.75,5.69,4,12.53,8.44,22.13,13.78,3.47,1.95,5.95,4.98,7.2,8.62.89,2.67,1.16,5.69.53,8.8-.18.98-.44,1.96-.8,2.93-2.93,9.87-9.78,18.04-19.2,22.66-6.75,3.29-14.13,4.44-21.24,3.55-3.91-.53-7.82-1.6-11.46-3.38-1.69-.8-3.29-1.6-4.8-2.4-12.8-6.4-22.66-12.8-29.24-19.02-1.78-1.69-1.87-4.53-.18-6.31,1.69-1.78,4.44-1.87,6.22-.18,6.67,6.31,17.77,13.24,31.99,20,7.91,3.82,16.97,3.73,24.88-.18,7.82-3.82,13.42-10.93,15.29-20.09.62-2.75-.8-5.69-3.47-7.11-12.09-6.75-20.17-12.26-26.75-17.15-.09-.18-.18-.18-.18-.18-2.13-1.51-4.09-3.02-6.04-4.53-9.51-7.2-17.78-13.51-36.26-21.95-9.86-4.53-23.29-4.27-29.33,7.02-17.95,33.42-14.84,79.45-13.6,96.69.18,3.11.35,5.15.35,6.58,0,2.22-.53,3.02-1.51,4.09-.8.8-1.96,1.25-3.11,1.25s-2.31-.45-3.11-1.25c-1.15-1.15-1.6-2.84-1.15-4.35v-.18s-.09-.09-.09-.09Z" fill="#1e1e1e" stroke-width="0"/>
      <path d="m191.56,237.09c-2.67-9.42-1.33-19.73,3.56-28.17,11.38-19.64,25.86-26.31,26.48-26.57,2.22-.98,4.89,0,5.87,2.22s0,4.89-2.22,5.87c-.18.09-12.62,5.95-22.4,22.93-3.73,6.4-4.71,14.22-2.76,21.42,1.87,6.84,6.22,12.44,12.98,16.26,3.02,1.69,7.02,1.07,9.69-1.42,7.55-7.02,19.2-18.31,29.42-29.95,5.33-6.13,10.31-12.26,13.95-17.95,4.71-7.38,4.44-16.62-.71-23.64-4.8-6.58-9.69-12.09-14.49-16.35-6.93-5.95-17.51-5.95-24.71,0l-21.95,18.13-1.07.89c-1.87,1.6-4.71,1.33-6.22-.53-1.6-1.96-1.33-4.71.53-6.31l7.02-5.78,9.69-8.09,6.31-5.16c3.82-3.29,8.44-5.24,13.15-6.04h.09c8.09-1.42,16.62.71,23.02,6.31,5.33,4.71,10.66,10.66,15.82,17.69,7.38,10.13,7.73,23.28.98,33.77-3.73,5.78-8.62,11.91-13.86,18.04-6.58,7.55-13.78,14.93-20.17,21.33-4,3.91-7.73,7.46-10.75,10.31-3.29,3.11-7.64,4.71-11.91,4.71-2.76,0-5.51-.71-8-2.04-.09,0-.8-.44-.8-.44-8.18-4.62-14.04-12.18-16.53-21.33v-.09Z" fill="#1e1e1e" stroke-width="0"/>
      <path d="m119.22,116.75c.09-.36.53-1.69,1.33-3.73,5.87-15.73,30.57-76.34,74.92-108.78,7.02-5.15,16.35-5.69,24.09-1.16,9.51,5.69,15.91,15.29,17.42,26.4,1.51,11.2-2.04,22.4-9.86,30.57-16.09,16.97-35.11,39.9-46.04,63.37,20.53-25.77,56.7-68.17,82.83-81.59,7.02-3.73,15.73-2.4,22.04,3.38,8.8,8.09,13.51,19.55,12.98,31.46-.62,11.82-6.31,22.75-15.82,29.95-22.04,16.71-38.84,31.11-49.32,42.22h-.09c-6.04,6.4-9.95,11.73-11.73,15.73-.71,1.69-2.31,2.67-4.09,2.67-.53,0-1.16-.09-1.78-.36-2.22-.98-3.29-3.56-2.31-5.87.18-.36.27-.62.44-.98,6.22-12.71,27.55-33.15,63.54-60.52,7.29-5.6,11.82-14.04,12.26-23.28.44-9.24-3.29-18.13-10.49-24.8-3.2-3.02-7.82-3.64-11.55-1.78-31.37,16.26-80.88,80.16-92.78,96.07-1.69,2.13-2.75,3.47-2.75,3.55-1.24,1.6-3.47,2.22-5.33,1.42-.36-.18-.62-.35-.89-.53-.09-.18-.18-.18-.18-.18-1.15-.98-1.78-2.58-1.51-4.18.44-2.31.89-4.53,1.51-6.84,8.09-31.11,33.68-63.01,54.66-85.05,5.87-6.22,8.62-14.66,7.47-23.2-1.16-8.44-5.95-15.64-13.6-20.26-4.27-2.49-9.69-2.13-13.86.89-41.77,30.57-66.12,89.76-71.81,104.78-.8,2.13-1.15,3.47-1.24,3.47-.8,2.31-3.38,3.56-5.6,2.84-2.4-.8-3.64-3.38-2.84-5.69Z" fill="#1e1e1e" stroke-width="0"/>
      <path d="m178.41,315.56c-1.51-1.95-1.07-4.8.98-6.22.62-.44,1.24-.89,1.78-1.33,5.69-4.09,10.84-8.27,15.64-12.44.8-.71,1.6-1.42,2.4-2.13,19.64-17.42,32.35-34.39,40.35-47.55,8.98-14.75,12-24.71,12-24.88.18-.53.36-.89.62-1.33,1.07-1.51,3.02-2.22,4.89-1.69,2.4.62,3.73,3.11,3.02,5.42,0,.18-.18.53-.36,1.16-2.13,6.49-14.04,39.01-52.79,73.85-2.13,1.95-4.35,3.91-6.75,5.95-2.58,2.04-5.24,4.27-8,6.31-2.49,2.04-5.06,3.91-7.73,5.87-.71.62-1.69.89-2.58.89h-.98c-.36-.09-.71-.18-.98-.36-.62-.36-1.24-.8-1.6-1.42l.09-.09Z" fill="#1e1e1e" stroke-width="0"/>
    </g>
  </g>
</svg>