<svg width="175" height="181" viewBox="0 0 175 181" fill="none" xmlns="http://www.w3.org/2000/svg">
<g clip-path="url(#clip0_4750_4819)">
<path d="M174.237 125.817C175.31 132.135 173.085 139.486 168.197 146.837C168.158 146.916 168.118 147.035 168.038 147.075C167.999 147.194 167.88 147.313 167.8 147.472C166.012 150.055 163.946 152.638 161.562 155.181C158.621 158.241 155.284 161.26 151.549 164.042C148.966 165.949 146.264 167.777 143.363 169.485C140.462 171.194 137.443 172.704 134.542 173.976C134.463 174.055 134.383 174.055 134.304 174.095C134.184 174.174 134.025 174.214 133.906 174.254H133.867C130.608 175.724 127.35 176.916 124.132 177.79C120.516 178.823 117.019 179.578 113.642 179.975H113.562C113.165 180.015 112.767 180.055 112.41 180.095H111.973C100.251 181.088 90.5954 177.989 86.3437 170.717C81.2179 161.976 85.0722 149.499 95.0456 137.936C94.5291 136.982 93.9728 135.989 93.4165 135.035C89.1252 127.724 84.6351 121.406 80.0656 116.281C71.5624 116.122 62.9002 110.519 55.2711 105.552C51.2977 102.969 47.5626 100.546 44.8209 99.592C40.8077 98.2013 29.4833 96.2145 12.8741 94.0291C8.54304 93.4331 4.68877 90.7709 2.58282 86.9166C0.596086 83.3007 0.397412 79.1286 2.02654 75.473C3.61593 72.1353 7.03312 70.3472 10.4503 70.6253C17.1655 71.3008 39.417 73.3273 49.3109 72.6518C43.4699 67.6452 31.9468 58.0294 17.841 48.0957C15.3377 46.3077 13.7086 43.6852 13.2317 40.705C12.7947 37.7249 13.5099 34.7846 15.298 32.3607C16.2913 31.0892 17.841 29.2614 19.8675 27.7515C23.0065 25.3674 27.4965 25.288 30.9535 27.5131C37.2713 31.6058 56.1453 43.7249 65.6816 49.3672C61.8274 41.6984 55.0725 28.5462 49.748 20.0032C47.8805 16.9834 47.3242 13.2483 48.2778 9.83112C49.1917 6.41393 51.4169 3.67223 54.5162 2.04311L55.9864 1.28815C59.8406 -0.539654 64.4499 0.255042 67.43 3.27488C73.6286 9.55298 85.6285 22.8244 99.5754 43.9236C99.5754 38.0428 100.251 31.0495 102.993 25.3277C105.257 20.5595 110.185 17.5794 115.708 17.6589C118.251 17.6589 120.555 18.1357 122.502 18.9304C126.476 20.5595 128.9 24.8509 128.383 29.3806C127.668 35.3409 126.079 49.9235 126.555 56.5592C126.833 60.3738 127.549 69.9896 125.482 79.0888C126.675 81.8703 132.317 94.6251 139.231 109.327C139.588 110.122 139.986 110.916 140.383 111.751C142.092 111.393 143.8 111.115 145.469 110.956C145.906 110.956 146.343 110.877 146.78 110.837C147.019 110.837 147.297 110.837 147.496 110.837C153.257 110.44 158.423 111.075 162.674 112.665C166.807 114.214 170.184 116.757 172.25 120.254C173.244 121.963 173.879 123.79 174.237 125.817Z" fill="#FFFDF7"/>
<path d="M168.197 146.838C168.197 146.838 168.118 147.036 168.038 147.076C167.999 147.195 167.879 147.315 167.8 147.474C166.012 150.056 163.946 152.639 161.562 155.182C158.621 158.242 155.283 161.262 151.548 164.043C148.966 165.95 146.264 167.778 143.363 169.487C140.462 171.195 137.443 172.705 134.542 173.977C134.462 174.056 134.383 174.056 134.303 174.096C134.184 174.175 134.025 174.215 133.906 174.255H133.866C130.608 175.725 127.35 176.917 124.131 177.791C120.516 178.824 117.019 179.579 113.641 179.977H113.562C113.165 180.016 112.767 180.056 112.41 180.096H111.973C100.251 181.089 90.5952 177.99 86.3436 170.718C81.2178 161.977 85.0721 149.5 95.0455 137.937C95.5223 137.46 95.9594 136.944 96.4362 136.427C104.383 150.613 110.184 166.348 111.734 178.109H111.814C115.191 177.712 118.688 176.957 122.304 175.924C125.522 175.049 128.78 173.857 132.039 172.427H132.078C132.078 172.427 132.356 172.308 132.476 172.228C132.555 172.189 132.635 172.189 132.714 172.109C135.615 170.838 138.635 169.328 141.535 167.619C144.436 165.91 147.138 164.083 149.721 162.175C153.456 159.394 156.793 156.374 159.734 153.315C153.257 142.626 145.231 126.653 138.396 112.229C138.714 112.149 138.992 112.07 139.27 111.99C139.628 111.911 140.025 111.831 140.383 111.752C142.091 111.394 143.8 111.116 145.469 110.957C145.906 110.957 146.343 110.878 146.78 110.838C147.019 110.838 147.297 110.838 147.495 110.838C153.257 110.441 158.422 111.077 162.674 112.666C166.807 114.216 170.184 116.759 172.25 120.255C173.244 121.964 173.879 123.792 174.237 125.818C175.31 132.136 173.085 139.487 168.197 146.838Z" fill="#1E1E1E"/>
<path d="M161.164 154.746C157.906 158.123 154.489 161.143 150.913 163.805C148.052 165.911 145.31 167.739 142.529 169.368C139.747 170.997 136.767 172.547 133.588 173.937L133.35 174.057C133.35 174.057 133.072 174.216 132.913 174.255C132.913 174.255 132.873 174.255 132.833 174.255C129.376 175.765 125.999 176.957 122.82 177.831C119.045 178.904 115.668 179.659 112.41 180.057H111.973C111.019 180.057 109.906 179.262 109.747 178.348C108.277 166.904 102.675 151.726 95.0455 137.898C94.529 136.944 93.9727 135.951 93.4164 134.997C89.1251 127.686 84.635 121.368 80.0655 116.243C71.5623 116.084 62.9001 110.481 55.271 105.514C51.2975 102.931 47.5625 100.508 44.8208 99.5539C40.8076 98.1632 29.4831 96.1765 12.874 93.991C8.54292 93.395 4.68865 90.7328 2.5827 86.8785C0.595964 83.2626 0.39729 79.0905 2.02642 75.4349C3.61581 72.0972 7.033 70.3091 10.4502 70.5873C17.1654 71.2627 39.4168 73.2892 49.3108 72.6137C43.4698 67.6071 31.9467 57.9913 17.8409 48.0576C15.3376 46.2696 13.7084 43.6471 13.2316 40.667C12.7945 37.6869 13.5098 34.7465 15.2978 32.3227C16.2912 31.0511 17.8409 29.2233 19.8673 27.7134C23.0064 25.3293 27.4964 25.2499 30.9533 27.475C37.2712 31.5677 56.1452 43.6868 65.6815 49.3291C61.8273 41.6603 55.0723 28.5081 49.7479 19.9651C47.8804 16.9453 47.3241 13.2102 48.2777 9.79304C49.1916 6.37585 51.4167 3.63415 54.5161 2.00502L55.9862 1.25006C59.8405 -0.57774 64.4498 0.216956 67.4299 3.2368C73.6285 9.51489 85.6284 22.7863 99.5753 43.8855C100.926 45.912 102.277 48.0179 103.628 50.1636C103.827 50.4815 103.946 50.8391 103.946 51.1569V51.2364C103.946 51.9119 103.628 52.5477 103.032 52.9053C102.079 53.5013 100.847 53.2232 100.291 52.3093C100.211 52.1503 100.092 52.0311 100.012 51.8722C84.6748 27.634 71.2444 12.7731 64.569 6.01823C62.7809 4.23017 60.0392 3.71362 57.6948 4.82619L56.3041 5.54142C54.2379 6.61425 52.728 8.52153 52.0922 10.8261C51.4565 13.2102 51.8141 15.793 53.1253 17.8989C58.7677 26.9187 65.9199 40.9451 69.7345 48.5345C70.4497 50.0444 70.0921 51.753 68.9 52.8655C67.708 53.9384 65.9994 54.1371 64.6087 53.3026C55.3505 47.8987 35.3639 35.0246 28.8077 30.8127C26.7415 29.4618 24.0792 29.5015 22.2514 30.8922C20.9799 31.8458 19.7879 33.0379 18.4369 34.7465C17.3243 36.2564 16.8872 38.1239 17.1654 40.0312C17.4832 41.9782 18.5163 43.6471 20.1455 44.7994C34.7679 55.0907 46.6088 65.0244 52.4101 70.031C53.5624 71.0641 53.9598 72.6535 53.483 74.0839C53.0061 75.4746 51.7744 76.4283 50.3042 76.5475C40.7281 77.3422 18.9932 75.4349 10.0926 74.5607C8.26478 74.3621 6.47671 75.3157 5.72175 76.9051C4.52971 79.5673 4.68865 82.4679 6.07936 84.9712C7.58928 87.7129 10.331 89.6202 13.4303 90.0573C25.311 91.6069 40.6884 93.9116 46.0923 95.8188C49.3108 96.9314 53.0856 99.3552 57.4167 102.176C64.8868 106.984 73.2709 112.428 80.9 112.269C81.3768 112.269 82.0125 112.507 82.4099 112.905C87.3767 118.348 92.2244 125.103 96.8336 133.011C105.138 147.196 111.377 163.368 113.403 175.845C115.946 175.447 118.727 174.851 121.747 173.977C124.727 173.182 127.866 172.03 131.085 170.639C131.204 170.56 131.323 170.52 131.482 170.48C131.562 170.401 131.681 170.361 131.76 170.322C131.76 170.282 131.88 170.282 131.919 170.242C134.979 168.931 137.84 167.461 140.502 165.871C143.164 164.322 145.787 162.573 148.529 160.547C151.548 158.322 154.449 155.779 157.23 152.997C150.038 140.878 141.575 123.593 135.654 110.958C130.568 100.15 126.158 90.3752 123.694 84.852C122.383 81.8719 121.628 80.1236 121.588 80.0839C121.39 79.6468 121.39 79.2097 121.509 78.7726C121.509 78.7329 121.509 78.6534 121.509 78.6137C121.708 78.0971 122.065 77.6998 122.582 77.4614C123.575 77.0243 124.767 77.4614 125.204 78.4945C125.204 78.4945 125.284 78.6931 125.443 79.0508C126.635 81.8322 132.277 94.5871 139.191 109.289C139.548 110.084 139.946 110.878 140.343 111.713C146.383 124.428 154.568 140.997 161.403 152.242C161.84 153.037 161.76 153.991 161.124 154.666L161.164 154.746Z" fill="#1E1E1E"/>
<path d="M128.383 29.4194C127.668 35.3796 126.078 49.9622 126.555 56.5979C126.833 60.4125 127.548 70.0283 125.482 79.1276C125.045 81.1143 124.489 83.0613 123.694 84.9288C123.257 86.1606 122.701 87.3527 122.065 88.4652L120.078 92.2003C119.721 92.8758 119.005 93.2334 118.33 93.2334C118.012 93.2334 117.654 93.1539 117.376 92.995C116.423 92.4784 116.065 91.2864 116.582 90.3328L118.608 86.558C119.919 84.2136 120.833 81.5911 121.509 78.8494C121.509 78.8097 121.509 78.7302 121.509 78.6905C123.495 70.068 122.82 60.6112 122.542 56.8761C122.065 50.1609 123.495 36.4921 124.37 28.9823C124.727 26.2008 123.297 23.6181 120.952 22.6644C119.442 22.0287 117.654 21.7108 115.588 21.6711C111.694 21.4327 108.118 23.6975 106.529 27.075C102.913 34.7438 103.31 45.353 103.906 51.2337V51.3132C104.184 53.896 104.462 55.5648 104.502 55.6046C104.701 56.6774 104.025 57.7105 102.913 57.9092C101.84 58.1079 100.807 57.4324 100.608 56.3595C100.568 56.1609 100.251 54.492 99.9724 51.949C99.734 49.8033 99.5353 47.0219 99.5353 43.9623C99.5353 38.0815 100.211 31.0882 102.952 25.3664C105.217 20.5982 110.144 17.6181 115.668 17.6976C118.211 17.7373 120.515 18.1744 122.462 18.9691C126.436 20.5982 128.86 24.8896 128.343 29.4194H128.383Z" fill="#1E1E1E"/>
<path d="M54.2777 81.3161C53.9201 81.3161 53.5625 81.2366 53.2446 81.038C52.291 80.4817 52.0128 79.2499 52.5691 78.2963C53.1254 77.3426 66.7942 55.0117 81.6152 49.9256C82.6483 49.568 83.7609 50.1243 84.1185 51.1574C84.4762 52.1905 83.9199 53.3031 82.8868 53.6607C69.4167 58.2699 56.0658 80.0843 55.9466 80.3227C55.589 80.9585 54.9135 81.2764 54.238 81.2764L54.2777 81.3161Z" fill="#1E1E1E"/>
<path d="M90.0792 100.07C89.5229 100.07 88.9666 99.832 88.5692 99.3552C74.1455 82.4679 93.2579 64.3091 93.4566 64.1502C94.2513 63.3952 95.5228 63.4349 96.2778 64.2296C97.0327 65.0243 96.993 66.2958 96.1983 67.0508C95.5228 67.6866 79.7084 82.7858 91.6288 96.7724C92.344 97.6068 92.2646 98.8784 91.3904 99.5538C91.0328 99.8717 90.556 100.031 90.1189 100.031H90.0792V100.07Z" fill="#1E1E1E"/>
<path d="M27.6637 115.856C35.9227 124.287 44.9836 128.911 55.95 132.828" stroke="#1E1E1E" stroke-width="3.97348" stroke-linecap="round"/>
<path d="M20.3896 129.595C23.6947 132.624 27.1193 134.53 30.896 136.868" stroke="#1E1E1E" stroke-width="3.97348" stroke-linecap="round"/>
<path d="M144.85 10.7927C152.026 27.8794 150.866 46.5344 146.466 64.1326" stroke="#1E1E1E" stroke-width="3.97348" stroke-linecap="round"/>
<path d="M161.822 23.7239C163.092 31.2037 163.438 38.775 163.438 46.3529" stroke="#1E1E1E" stroke-width="3.97348" stroke-linecap="round"/>
</g>
<defs>
<clipPath id="clip0_4750_4819">
<rect width="173.568" height="180" fill="white" transform="translate(0.933838 0.2771)"/>
</clipPath>
</defs>
</svg>
