<svg width="246" height="211" viewBox="0 0 246 211" fill="none" xmlns="http://www.w3.org/2000/svg">
<g clip-path="url(#clip0_4750_4818)">
<path d="M86.7323 148.463C103.19 129.105 107.419 110.166 108.013 106.881C108.886 105.414 109.585 104.051 110.144 102.828C112.311 98.2153 111.472 92.6943 107.978 89.0951C100.71 81.5125 94.0703 79.1014 93.7908 78.9966C93.651 78.9966 93.5112 78.9267 93.3715 78.9267C92.5328 76.4108 90.8556 74.1395 88.4794 72.602C82.1547 68.4787 74.9565 65.1591 73.0346 64.2855C68.8065 63.7963 69.0161 61.8046 66.1159 60.5466C62.7613 58.3102 62.0974 62.6432 59.1622 59.5332C56.2269 56.3534 48.9238 73.3008 48.6443 77.8434C45.9187 78.8917 37.8119 81.6522 36.9733 84.6923C34.7719 92.834 31.5921 108.698 35.0864 124.003L32.0114 133.333C31.6969 133.228 31.3824 133.193 31.033 133.298C30.3691 133.438 29.8798 133.962 29.7051 134.626C29.7051 134.696 28.0628 141.999 24.5336 151.783C24.254 152.552 23.9745 153.321 23.6949 154.124H23.5901C23.2057 154.124 22.8213 154.159 22.4719 154.159C22.2273 154.159 22.0177 154.159 21.808 154.229C16.7412 154.509 12.3035 155.662 8.80916 157.514C5.34979 159.331 2.69411 161.917 1.29639 165.201C0.597527 166.774 0.283039 168.451 0.17821 170.268C-0.0663915 175.509 2.34468 181.24 6.8174 186.726C7.13189 187.076 7.41143 187.425 7.69098 187.774C7.93558 188.019 8.11029 188.229 8.3549 188.473C8.49467 188.683 8.70433 188.893 8.91399 189.067C9.01882 189.242 9.19353 189.417 9.36825 189.591C9.61285 189.871 9.85745 190.151 10.137 190.395C10.6961 190.989 11.2901 191.548 11.9191 192.107C12.0938 192.317 12.2336 192.457 12.3734 192.562C15.7978 195.637 19.7813 198.467 24.254 201.053C26.735 202.416 29.3208 203.708 32.0463 204.862C34.7719 206.015 37.5673 207.028 40.2579 207.797C40.3278 207.797 41.2364 208.076 41.2364 208.076C43.1233 208.635 45.2199 209.055 47.2466 209.404C48.225 209.614 49.2034 209.789 50.1818 209.928C50.9505 210.068 51.7542 210.173 52.523 210.243H52.6977C52.6977 210.243 52.9772 210.243 53.117 210.208C53.3616 210.138 53.6412 210.103 53.9207 209.928C54.0605 209.858 54.2002 209.789 54.3051 209.684C59.0923 205.56 70.6235 188.438 78.2062 177.117C81.2113 172.714 84.1814 168.311 84.8454 167.542L84.9152 167.472C85.4394 167.193 85.7888 166.844 86.0334 166.494C87.7107 164.153 85.9985 159.925 84.7056 157.409L85.5093 156.396C86.6624 156.011 87.6757 155.312 88.1999 154.089C89.0735 152.063 87.7806 149.791 86.7672 148.429L86.7323 148.463Z" fill="#FFFDF7"/>
<path d="M0.17821 170.267C-0.0663915 175.509 2.34468 181.239 6.8174 186.725C7.062 187.11 7.37649 187.459 7.65603 187.809C7.90064 188.053 8.07535 188.263 8.31995 188.508C8.49467 188.682 8.66938 188.892 8.87904 189.102C8.98387 189.276 9.15859 189.451 9.3333 189.626C9.5779 189.835 9.85745 190.15 10.102 190.429C10.6611 191.023 11.2552 191.583 11.8841 192.142C12.0589 192.351 12.1986 192.491 12.3384 192.596C15.7628 195.671 19.7463 198.501 24.2191 201.087C26.7 202.45 29.2858 203.743 32.0114 204.896C34.7369 206.049 37.5324 207.062 40.223 207.831C40.2929 207.831 41.2014 208.111 41.2014 208.111C43.0883 208.67 45.1849 209.089 47.2116 209.438C48.3997 209.648 49.5528 209.858 50.636 209.998L51.894 208.425C51.4048 208.39 50.9156 208.32 50.3914 208.215C47.4912 207.796 44.521 207.132 41.5159 206.259C41.5159 206.259 41.2713 206.189 41.1665 206.119C41.0616 206.119 41.0267 206.119 40.9568 206.049C38.2662 205.28 35.4707 204.267 32.7452 203.114C30.0196 201.961 27.4338 200.668 24.9529 199.305C20.4802 196.719 16.4966 193.889 13.0722 190.814C11.5697 189.486 10.2069 188.088 8.94893 186.656C16.4617 176.312 21.9128 164.117 25.5469 154.158H25.512C24.9179 154.124 24.3239 154.124 23.7299 154.124H23.625C23.2407 154.124 22.8563 154.158 22.5068 154.158C22.2622 154.158 22.0526 154.158 21.8429 154.228C16.7762 154.508 12.3384 155.661 8.8441 157.513C5.38473 159.33 2.72906 161.916 1.33133 165.201C0.632471 166.773 0.317983 168.45 0.213153 170.267H0.17821Z" fill="#1E1E1E"/>
<path d="M6.78235 186.761C7.09684 187.11 7.37638 187.46 7.65593 187.809C7.90053 188.054 8.07524 188.263 8.31984 188.508C8.45962 188.717 8.66928 188.927 8.87893 189.102C8.98376 189.277 9.15848 189.451 9.33319 189.626C9.5778 189.906 9.8224 190.185 10.1019 190.43C10.661 191.024 11.2551 191.583 11.884 192.142C15.3434 195.217 19.4317 198.152 24.0442 200.843C26.8746 202.38 29.4604 203.638 32.0462 204.756C34.9465 205.979 37.7769 206.993 40.4326 207.727C40.5723 207.796 40.6422 207.831 40.747 207.866C40.747 207.866 40.8169 207.866 40.8519 207.901C40.9916 207.971 41.1314 208.006 41.3061 208.006C43.2979 208.6 45.2896 209.089 47.2115 209.439C48.1899 209.648 49.1683 209.823 50.1467 209.963C50.9155 210.103 51.7192 210.207 52.4879 210.277H52.6626C52.6626 210.277 52.9422 210.277 53.082 210.242C53.3266 210.173 53.6061 210.138 53.8856 209.963C54.0254 209.893 54.1652 209.823 54.27 209.718C59.0572 205.595 70.5884 188.473 78.1711 177.151C81.1762 172.748 84.1464 168.346 84.8103 167.577L84.8802 167.507C85.4393 167.018 85.6489 166.249 85.3694 165.55C84.985 164.642 83.9716 164.222 83.0981 164.572C82.6089 164.781 82.3992 164.851 80.4424 167.577C79.3941 169.079 77.8217 171.421 75.4106 175.02C68.422 185.433 57.0305 202.345 52.3481 206.748C51.824 206.678 51.2649 206.608 50.7058 206.504C47.9104 206.119 45.0101 205.455 42.005 204.582H41.9351C41.9351 204.582 41.6905 204.512 41.5857 204.477C41.5507 204.442 41.4808 204.442 41.4459 204.407C38.93 203.708 36.2044 202.73 33.4439 201.542C30.963 200.528 28.482 199.305 25.7914 197.803C21.4235 195.287 17.5099 192.491 14.2602 189.556C13.2119 188.648 12.1985 187.669 11.1852 186.586C19.1173 175.299 24.6033 162.161 27.853 153.006C29.9846 147.03 31.4522 142.033 32.2908 138.889C32.3258 138.714 32.3956 138.539 32.4306 138.364C32.9198 138.469 33.4789 138.364 33.8982 138.015C34.632 137.421 34.7368 136.303 34.1428 135.569L32.815 133.927C32.6053 133.647 32.3607 133.472 32.0462 133.368C31.7317 133.263 31.4172 133.228 31.0678 133.368C30.4039 133.507 29.9147 134.032 29.74 134.695C29.74 134.765 28.0976 142.068 24.5684 151.852C24.2888 152.621 24.0093 153.39 23.7297 154.194C20.2704 163.628 14.7144 176.313 6.85223 186.796C6.81729 186.796 6.81729 186.831 6.81729 186.831L6.78235 186.761Z" fill="#1E1E1E"/>
<path d="M57.31 105.1C57.1003 107.301 57.904 109.537 59.5114 111.075C59.9307 111.494 60.385 111.844 60.8742 112.123L67.758 116.072L70.0642 117.4C71.1125 117.994 72.3006 118.308 73.4537 118.308C75.0261 118.308 76.5636 117.784 77.7866 116.771C78.0662 116.526 78.3457 116.246 78.5903 115.967C79.1145 115.373 79.6386 114.744 80.1278 114.115C87.2912 105.135 91.3795 94.0576 93.6159 86.1255C93.9304 85.0772 94.0701 83.994 94.0701 82.9457C94.1051 81.548 93.8605 80.1852 93.3713 78.9272C92.5326 76.4113 90.8554 74.14 88.4792 72.6025C82.1545 68.4793 74.9563 65.1597 73.0344 64.2861C72.7548 64.1812 72.5801 64.0764 72.5452 64.0764C71.6716 63.692 70.6233 64.1114 70.2389 64.9849C69.8546 65.8585 70.2739 66.9068 71.1475 67.2912C71.1475 67.2912 71.6367 67.5008 72.4753 67.8852C75.131 69.1082 81.246 72.0784 86.5574 75.5028C89.8071 77.6343 91.2747 81.513 90.2613 85.182C88.4094 91.8212 84.1113 104.261 76.1443 113.486C76.0744 113.556 76.0046 113.591 75.9696 113.661C74.9213 114.849 73.1742 115.163 71.8114 114.36L62.6213 109.083C61.5032 108.454 60.8392 107.231 60.8043 106.008C60.7344 105.519 60.8043 104.995 61.014 104.506C61.3634 103.597 60.9441 102.584 60.0355 102.234C59.162 101.885 58.1486 102.304 57.7642 103.213C57.5196 103.807 57.3799 104.471 57.31 105.1Z" fill="#1E1E1E"/>
<path d="M76.5637 115.896L77.7867 116.769L86.9767 123.199C88.1298 124.003 89.4926 124.422 90.8205 124.422C92.5327 124.422 94.2449 123.758 95.5727 122.535C97.9489 120.299 100.011 118.062 101.758 115.896C104.413 112.681 106.475 109.571 108.012 106.881C108.886 105.413 109.585 104.05 110.144 102.827C112.31 98.2147 111.472 92.6937 107.978 89.0945C100.709 81.5119 94.0702 79.1008 93.7906 78.996C93.6509 78.996 93.5111 78.9261 93.3713 78.9261C92.6026 78.8213 91.8338 79.2755 91.5543 80.0443C91.2398 80.9528 91.694 81.9661 92.6026 82.2806C92.6375 82.3156 93.1617 82.4903 94.0702 82.9445C96.2716 84.0278 100.744 86.6136 105.462 91.5056C107.943 94.0914 108.537 98.005 106.964 101.325C104.763 105.972 100.57 112.996 93.1617 119.984C92.0085 121.067 90.2614 121.242 88.9685 120.334L80.1279 114.114L78.5904 113.031C77.7867 112.506 76.7035 112.681 76.1444 113.485C75.5853 114.254 75.7949 115.337 76.5637 115.896Z" fill="#1E1E1E"/>
<path d="M78.3455 154.928C78.66 155.277 79.1142 155.452 79.5685 155.452C80.0228 155.452 80.477 155.277 80.7915 154.928C81.2807 154.439 81.8049 153.914 82.2591 153.425C82.9929 152.656 83.6918 151.923 84.3557 151.189C85.1943 150.28 85.9631 149.372 86.7318 148.463C103.19 129.105 107.418 110.166 108.012 106.881C108.082 106.636 108.117 106.497 108.117 106.427C108.292 105.483 107.628 104.575 106.684 104.435C105.776 104.26 104.832 104.924 104.693 105.868C104.658 105.972 103.994 109.886 101.757 115.896C98.8571 123.863 93.3011 135.604 83.2026 147.24C81.7 148.987 80.0577 150.735 78.3455 152.447C78.2407 152.552 78.1708 152.656 78.1358 152.761C77.6466 153.425 77.7515 154.334 78.3455 154.928Z" fill="#1E1E1E"/>
<path d="M66.8495 132.634C67.6183 132.634 68.3171 132.145 68.5268 131.376C72.9296 116.456 62.0623 108.768 61.9225 108.698C61.1189 108.139 60.0356 108.349 59.4765 109.152C58.9174 109.956 59.1271 111.039 59.9308 111.564C60.2802 111.808 68.8413 117.958 65.1723 130.398C64.8927 131.306 65.4169 132.285 66.3603 132.564C66.535 132.564 66.6748 132.634 66.8495 132.634Z" fill="#1E1E1E"/>
<path d="M31.1026 136.058L32.0111 133.333L35.0861 124.003L35.2608 123.514C35.4704 122.85 36.0645 122.361 36.7983 122.326C37.4971 122.256 38.1611 122.64 38.4756 123.269C38.4756 123.339 38.5454 123.374 38.5804 123.444C43.4724 132.983 67.059 149.302 78.136 152.761C79.5337 153.215 80.6868 153.46 81.6303 153.46H82.2593C83.028 153.46 83.5871 153.355 83.9715 153.285H84.0763C84.7752 153.111 84.9499 152.866 84.9499 152.866C85.0547 152.621 84.8101 151.992 84.3559 151.259C84.0414 150.769 83.657 150.245 83.2027 149.791C82.5039 149.092 82.5388 147.974 83.2027 147.31C83.9016 146.646 85.0198 146.646 85.6837 147.31C85.8584 147.52 86.2777 147.939 86.732 148.533C87.7453 149.896 89.0382 152.167 88.1646 154.194C87.6405 155.417 86.6271 156.116 85.474 156.5L84.6703 157.513L82.2243 160.588L79.5686 163.908L77.7865 166.144C77.4371 166.564 76.9479 166.808 76.4238 166.808C76.3189 166.808 76.2141 166.808 76.1093 166.808H76.0394L75.3056 166.669C52.2781 162.126 36.2392 143.851 32.2557 138.959C31.7315 138.295 31.417 137.875 31.3472 137.771C30.9977 137.316 30.9278 136.722 31.1026 136.163V136.093V136.058ZM75.7249 163.069L80.6519 156.919C70.3786 155.836 45.8835 139.203 37.4273 128.091L34.7017 136.268C37.7767 140.112 53.571 158.597 75.7249 163.069Z" fill="#1E1E1E"/>
<path d="M74.7116 164.642C74.8863 163.698 75.8298 163.104 76.7733 163.279L79.5687 163.838L82.1894 164.362C82.8534 164.502 83.1329 164.467 83.1679 164.467C83.4125 163.943 82.9931 162.301 82.2244 160.519C81.9099 159.715 81.4906 158.911 81.0713 158.142C80.5821 157.304 80.8965 156.256 81.7002 155.766C82.5389 155.277 83.6221 155.557 84.1113 156.395C84.286 156.675 84.4607 157.024 84.6704 157.444C85.9633 159.96 87.6755 164.188 85.9982 166.529C85.7536 166.878 85.4042 167.228 84.8801 167.507C84.3909 167.787 83.7619 167.962 82.9233 167.962C82.5039 167.962 82.0147 167.892 81.4906 167.787L80.4423 167.577L76.1093 166.704H76.0395C75.1309 166.459 74.502 165.585 74.7116 164.642Z" fill="#1E1E1E"/>
<path d="M69.0858 90.633C68.2472 90.0389 67.0941 90.2835 66.535 91.1222L66.4651 91.1921C66.7796 89.6546 67.129 87.9773 67.4086 86.1603C67.4086 86.0205 67.4435 85.8458 67.4784 85.706C67.4784 85.6711 67.4784 85.6711 67.5483 85.6361C68.7713 77.8787 69.4003 68.3393 68.8063 63.8316C66.7446 62.993 64.1588 62.1893 61.9924 61.9447C61.9225 61.9447 61.8526 61.9447 61.7827 61.9447C59.8608 61.735 58.2535 61.9447 57.5546 62.7833C57.7643 62.5038 57.939 62.2242 57.9739 61.8399C57.9739 61.5953 57.9739 61.4205 57.9739 61.2458C57.8691 60.8265 57.6245 60.4421 57.31 60.1975C57.0654 59.9529 56.7509 59.6035 56.2268 59.2191C57.7293 58.3106 59.6861 58.101 61.6779 58.2407C63.3202 58.3805 64.9625 58.7649 66.4651 59.2191C68.3171 59.7433 69.8895 60.3723 70.798 60.8265C70.9029 60.8265 71.0077 60.8265 71.1125 60.8964C71.1475 60.8964 71.1475 60.9663 71.1824 60.9663C71.7066 61.1759 72.1259 61.6651 72.2307 62.2592C72.3355 62.7833 72.4054 63.5171 72.4753 64.4257C72.7199 68.0248 72.5103 74.0699 71.8114 80.2549C71.7066 81.4429 71.5668 82.666 71.3921 83.854C71.3571 84.1685 71.2872 84.4481 71.2523 84.7625C71.0776 85.9855 70.9029 87.2435 70.6932 88.3966C70.4836 89.4449 70.3088 90.4583 70.0642 91.4017C69.4003 90.9824 69.0509 90.7378 69.0509 90.7029L69.0858 90.633ZM50.3214 104.366C47.9802 104.645 45.6739 103.876 44.0316 102.129C43.9268 102.024 43.8918 101.955 43.787 101.885C42.9134 100.906 42.3194 99.7182 42.1097 98.4952C41.935 97.6216 41.9001 96.748 42.0399 95.8395C43.7521 85.2168 48.9935 68.9683 53.6759 61.8399C54.0253 61.3157 54.3748 60.7916 54.7242 60.3723C55.1435 59.8481 55.6677 59.4288 56.1918 59.1492C57.6944 58.2407 59.6512 58.0311 61.6429 58.1708C63.2853 58.3106 64.9276 58.695 66.4301 59.1492C68.2821 59.6734 69.8546 60.3024 70.7631 60.7566C70.8679 60.7566 70.9728 60.7566 71.0776 60.8265C71.1125 60.8265 71.1125 60.8964 71.1475 60.8964C71.6716 61.1061 72.0909 61.5953 72.1958 62.1893C72.3006 62.7134 72.3705 63.4472 72.4404 64.3558C72.685 67.9549 72.4753 74.0001 71.7764 80.185C71.6716 81.3731 71.5318 82.5961 71.3571 83.7841C71.3222 84.0986 71.2523 84.3782 71.2174 84.6927C71.0426 85.9157 70.8679 87.1736 70.6583 88.3267C70.4486 89.375 70.2739 90.3884 70.0293 91.3318C69.7148 92.6946 69.4003 93.9875 69.0509 95.1057C69.0159 95.2455 68.981 95.3154 68.9461 95.3852C68.1424 97.7264 67.2688 99.4386 66.2554 100.207C65.9759 100.417 65.4867 100.801 64.4034 101.256C62.4466 102.094 58.4981 103.317 50.2515 104.366H50.3214ZM65.6265 94.2671C65.8361 93.6381 66.0458 92.8344 66.2554 91.9958C66.2554 91.7861 66.3603 91.6114 66.4301 91.4017C66.4301 91.3318 66.4301 91.262 66.4301 91.1921C66.7446 89.6546 67.0941 87.9773 67.3736 86.1603C67.3736 86.0205 67.4086 85.8458 67.4435 85.706C67.4435 85.6711 67.4435 85.6711 67.5134 85.6361C68.7364 77.8787 69.3654 68.3393 68.7713 63.8316C66.7097 62.993 64.1239 62.1893 61.9574 61.9447C61.8875 61.9447 61.8177 61.9447 61.7478 61.9447C59.8259 61.735 58.2185 61.9447 57.5197 62.7833C57.5197 62.8183 57.4498 62.8532 57.4148 62.8882C53.3964 68.0248 47.491 84.5878 45.6041 96.5034C45.4992 96.9577 45.5342 97.4119 45.6041 97.8662C45.7438 98.5651 46.0583 99.1591 46.5825 99.6832C47.3862 100.522 48.5742 100.976 49.7623 100.801C60.35 99.4386 63.2154 97.9361 63.9841 97.377C64.4034 97.0625 64.8228 96.2938 65.2071 95.2105C65.312 94.9659 65.3819 94.6864 65.5216 94.3719L65.6265 94.2671Z" fill="#1E1E1E"/>
<path d="M80.6871 89.1299L83.2729 91.3313V97.1319L81.2462 101.674L75.83 105.274L59.1971 104.4L49.4829 106.392L37.5323 100.731L38.1613 91.1217L41.2363 80.4989L48.4695 78.9265L56.2269 81.2677L72.6152 87.208L80.6871 89.1299Z" fill="#FFFDF7"/>
<path d="M35.0863 124.003C35.0863 124.003 35.1561 124.318 35.1911 124.457C35.4008 125.261 36.0996 125.82 36.9033 125.82C37.0431 125.82 37.1828 125.785 37.3226 125.75C38.2661 125.541 38.8252 124.597 38.6155 123.654C38.6155 123.584 38.5806 123.514 38.5806 123.444C35.1561 108.803 38.1962 93.4629 40.3627 85.6357C41.2362 82.4209 44.5209 80.4641 47.8754 81.2328C51.3697 82.0365 54.7243 83.2945 57.9391 84.4825C59.4416 85.0067 60.8393 85.5308 62.2021 85.9851C66.5351 87.4527 74.6419 89.2697 79.0447 90.2132C80.7918 90.5976 82.0149 92.205 81.9799 94.022C81.8751 97.097 80.687 99.6129 78.6603 101.465C76.6336 103.282 73.9779 104.225 71.2174 104.016C60.6297 103.317 54.3399 100.242 54.27 100.207C53.4314 99.7876 52.3831 100.137 51.9288 101.011C51.5095 101.849 51.859 102.898 52.7325 103.352C52.8723 103.422 54.4797 104.19 57.3101 105.099C58.3234 105.379 59.4766 105.693 60.8044 106.007C63.5649 106.636 66.9893 107.23 70.9728 107.51C74.6768 107.755 78.2759 106.532 81.0364 104.051C83.762 101.57 85.3344 98.1453 85.4393 94.4413C85.5441 90.5976 83.168 87.5226 79.7785 86.7888C76.8433 86.1598 72.2657 85.1464 68.3172 84.1331C67.0941 83.7837 65.9061 83.4692 64.8927 83.1547C64.3336 82.98 63.8095 82.8402 63.3203 82.6655C61.9925 82.2462 60.5947 81.722 59.1621 81.1979C55.9822 80.0098 52.3831 78.682 48.6442 77.8433C47.8405 77.6686 47.0368 77.5638 46.2681 77.5987C45.0101 77.5987 43.822 77.8433 42.7039 78.3325C39.9783 79.3808 37.8118 81.6521 36.9732 84.6922C34.7718 92.8339 31.5919 108.698 35.0863 124.003Z" fill="#1E1E1E"/>
<path d="M245.898 61.1061C246.247 73.1964 243.207 82.2467 237.162 84.1686C231.117 86.0904 222.765 80.0453 215.917 69.2129C215.917 69.2129 215.917 69.2129 215.847 69.143C215.113 69.3876 214.344 69.5623 213.575 69.8069C201.171 73.5109 189.989 77.7041 186.949 78.8572C186.355 81.7924 185.062 84.3433 183.14 86.4398C176.641 93.6381 165.109 93.4984 161.58 93.2538C160.078 96.2239 157.037 98.5651 152.565 100.277L149.525 101.5C135.687 106.951 131.529 107.615 119.089 89.0955C119.019 88.9558 118.949 88.8509 118.88 88.7112C116.259 88.5015 113.953 87.593 111.961 85.9856C106.16 81.2333 105.182 71.9385 105.077 68.6538C102.806 67.291 100.884 65.3342 99.4163 62.8533C93.6856 52.9644 93.3012 44.9274 98.1933 39.5113C103.784 33.4312 112.031 29.6224 119.474 27.2812C120.732 26.8968 122.619 25.1497 124.785 23.6122C134.329 18.9446 163.26 20.1113 169.792 24.9051C174.125 28.0849 178.667 30.7755 177.304 34.165C186.774 31.8937 192.365 28.0499 201.939 23.3676C201.66 11.417 204.7 2.57641 210.71 0.689484C217.349 -1.4071 225.84 5.4068 232.899 17.2875C233.353 18.0213 233.773 18.7551 234.192 19.5588C236.987 24.5906 239.538 30.461 241.565 36.8556C243.801 43.9141 245.199 50.7979 245.688 57.0527C245.793 58.4504 245.898 59.8132 245.933 61.1061H245.898Z" fill="#FFFDF7"/>
<path d="M210.676 0.654816C217.315 -1.44177 225.806 5.37214 232.864 17.2528C233.319 17.9866 233.738 18.7204 234.157 19.5241C236.953 24.5559 239.504 30.4263 241.53 36.8209C243.767 43.8794 245.164 50.7632 245.654 57.018C245.758 58.4158 245.863 59.7785 245.898 61.0714C246.248 73.1618 243.208 82.212 237.162 84.1339C231.117 86.0558 222.766 80.0106 215.917 69.1782C215.917 69.1782 215.917 69.1783 215.847 69.1084C215.533 68.6192 215.218 68.0601 214.904 67.5709C220.04 66.1033 225.317 64.6706 230.349 63.6223C235.345 62.5391 240.063 61.8053 244.046 61.6655C244.046 60.3376 243.941 58.9749 243.802 57.6121C243.277 51.3573 241.915 44.4735 239.678 37.415C237.652 31.0204 235.136 25.1499 232.305 20.1181C229.335 14.7718 226.679 11.3125 226.435 11.2076C218.712 16.4142 210.536 21.1664 201.94 25.2897C201.94 24.6258 201.87 23.9968 201.835 23.3678C201.555 11.4173 204.595 2.57669 210.606 0.689759L210.676 0.654816Z" fill="#1E1E1E"/>
<path d="M227.133 9.5642C228.776 10.2281 233.807 19.1386 233.877 19.2434C236.812 24.5548 239.328 30.4602 241.39 36.8897C243.591 43.8783 245.059 51.0067 245.618 57.4712C245.723 58.9039 245.828 60.3365 245.863 61.6993C245.863 62.6428 245.129 63.4115 244.185 63.4465C237.546 63.726 228.042 65.6479 215.916 69.1422C215.183 69.3868 214.414 69.5615 213.645 69.8061C201.24 73.5101 190.059 77.7032 187.019 78.8564C186.494 79.066 186.25 79.1709 186.215 79.1709C185.306 79.5203 184.328 79.066 183.944 78.1575C183.559 77.2141 184.048 76.2706 184.957 75.8862C184.957 75.8862 185.935 75.5018 187.578 74.9078C192.085 73.2305 201.939 69.6663 212.667 66.4166C225.176 62.7127 235.17 60.5811 242.368 60.057C242.298 59.2882 242.264 58.5195 242.194 57.7507C241.704 51.5309 240.272 44.682 238.14 37.938C236.183 31.7531 233.737 26.0224 230.907 20.9557C228.95 17.4264 227.203 14.8756 226.225 13.4778C208.648 25.1488 191.666 32.8713 174.649 37.0644C172.797 37.5187 172.307 34.0244 173.461 33.7448C182.93 31.4735 192.4 28.0142 201.974 23.3318C209.732 19.6278 217.594 15.0852 225.596 9.70397C226.085 9.35454 226.679 9.3196 227.238 9.5642H227.133Z" fill="#1E1E1E"/>
<path d="M155.395 73.1959C155.395 73.1959 155.814 73.6502 156.339 74.2442C157.876 75.9564 160.741 79.5905 162.104 83.8186C162.698 85.7056 162.978 87.7323 162.663 89.724C162.663 89.9686 162.663 90.2132 162.558 90.4578C162.349 91.4013 162.034 92.3098 161.545 93.1834C160.042 96.1536 157.002 98.4947 152.53 100.207L149.49 101.43C135.652 106.881 131.494 107.545 119.054 89.0252C118.984 88.8854 118.914 88.7806 118.845 88.6408C118.565 87.907 118.845 87.0684 119.508 86.5792C120.277 86.055 121.395 86.2647 121.92 87.0684C122.269 87.5576 122.549 88.0118 122.828 88.4661C133.451 103.981 136.246 102.863 148.197 98.1803L151.272 96.9922C155.849 95.2101 158.47 92.799 159.134 89.724C160.182 84.9019 156.129 79.3459 154.032 76.9349C153.368 76.1661 152.914 75.6769 152.914 75.6769C152.25 74.978 152.25 73.8599 152.914 73.1959C153.613 72.4971 154.731 72.532 155.395 73.1959Z" fill="#1E1E1E"/>
<path d="M148.232 51.1112L149.315 51.9149C150.608 52.8584 151.726 53.9066 152.74 55.0598C152.775 55.0598 152.81 55.1297 152.845 55.1297C154.312 56.8419 155.43 58.6938 156.199 60.7205C156.339 61.035 156.444 61.3495 156.549 61.664C156.933 62.887 157.177 64.145 157.282 65.4029C157.597 69.4913 157.282 72.3915 156.374 74.2785C156.129 74.8725 155.78 75.3268 155.43 75.7111C154.976 76.1305 154.522 76.5847 154.068 76.9691C151.901 78.8211 149.35 80.2537 146.555 81.1623L124.016 88.3256C123.632 88.3955 123.248 88.5003 122.863 88.5353C121.431 88.7799 120.138 88.8148 118.845 88.71C116.224 88.5003 113.918 87.5918 111.926 85.9844C106.126 81.2322 105.147 71.9373 105.042 68.6526C105.042 67.9538 105.007 67.5694 105.007 67.4995C105.007 66.5211 105.811 65.7524 106.755 65.7524C106.859 65.7524 106.999 65.7524 107.104 65.7873C107.453 65.8572 107.768 66.0319 107.943 66.2765C108.292 66.591 108.467 67.0103 108.467 67.4995C108.467 67.4995 108.467 68.6526 108.642 70.26C109.026 73.8941 110.249 80.0441 114.093 83.2239C116.434 85.1108 119.334 85.6699 123.038 84.9012L145.437 77.8077C148.267 76.8992 150.853 75.3268 152.845 73.2302C153.194 72.9157 154.207 71.3782 153.753 65.7524C153.508 62.7822 152.285 59.9518 150.329 57.5757C149.56 56.6322 148.721 55.8285 147.708 55.0598C147.603 54.92 147.428 54.8152 147.254 54.6754L146.17 53.8717C145.506 53.4174 145.262 52.5439 145.541 51.845C145.646 51.7052 145.716 51.5655 145.786 51.4257C146.345 50.6569 147.463 50.4473 148.232 51.0413V51.1112Z" fill="#1E1E1E"/>
<path d="M133.8 24.0312C135.477 23.7866 136.561 23.7167 136.77 23.6818C137.364 23.6468 137.958 23.8914 138.308 24.3806C138.517 24.6602 138.657 24.9746 138.657 25.2891C138.727 26.2675 138.028 27.1062 137.05 27.1761C137.05 27.1761 136.7 27.211 136.071 27.2459C131.424 27.805 110.842 30.8451 100.744 41.8522C95.9217 47.0936 98.9967 55.2004 102.386 61.0359C103.539 63.0976 105.182 64.67 107.069 65.7532C107.348 65.928 107.628 66.1027 107.907 66.2424C110.633 67.5353 113.743 67.9197 116.853 67.116C126.217 64.67 134.429 60.372 141.173 56.4584C143.06 55.3402 144.563 53.7328 145.471 51.8459C145.576 51.7061 145.646 51.5663 145.716 51.4266C146.03 50.6578 146.275 49.8541 146.449 48.9806C147.009 45.9754 146.24 42.9354 144.353 40.5942C142.745 38.6374 140.369 37.8337 138.063 38.3229C127.336 40.6292 109.41 48.1419 109.2 48.2118C108.327 48.5962 107.278 48.2118 106.929 47.2683C106.614 46.4647 106.964 45.3465 107.872 44.997C108.606 44.6826 126.287 37.2746 137.329 34.8985C140.928 34.1297 144.597 35.3877 146.904 38.1831C148.092 39.6507 148.965 41.2232 149.49 42.9005C150.188 45.0669 150.293 47.3382 149.874 49.6095C149.734 50.3433 149.559 51.1121 149.245 51.8109C148.861 52.9641 148.336 54.0473 147.638 54.9908C146.415 56.8428 144.807 58.3453 142.885 59.4635C136.351 63.2373 127.545 67.8848 117.691 70.4356C114.581 71.2743 111.471 71.1694 108.571 70.2609C107.313 69.8416 106.09 69.2825 104.937 68.5836C102.666 67.2209 100.744 65.264 99.2763 62.7831C93.5456 52.8942 93.1612 44.8573 98.0533 39.4411C108.012 28.5738 126.462 24.9746 133.66 23.9613L133.8 24.0312Z" fill="#1E1E1E"/>
<path d="M184.573 65.0542C185.447 64.8445 186.355 65.3687 186.635 66.2422C186.635 66.2422 186.635 66.3471 186.635 66.382C187.334 69.457 187.613 72.3573 187.473 74.9081C187.438 76.2709 187.264 77.5638 186.914 78.8218C186.32 81.757 185.027 84.3078 183.105 86.4044C176.606 93.6027 165.075 93.4629 161.546 93.2183C160.986 93.1834 160.602 93.1484 160.532 93.1484C159.589 93.0087 158.89 92.17 158.995 91.1916C159.099 90.2481 159.973 89.5493 160.917 89.6541C160.917 89.6541 161.615 89.724 162.629 89.7589C166.403 89.8638 175.558 89.5842 180.52 84.0982C183.979 80.2894 184.853 74.5936 183.245 67.1508C183.036 66.2422 183.63 65.2638 184.573 65.0891V65.0542Z" fill="#1E1E1E"/>
<path d="M174.125 47.4423C174.125 47.4423 180.1 35.0026 173.95 29.796C167.8 24.5895 164.585 19.5577 142.291 20.8157C119.998 22.0736 120.906 31.054 120.906 31.054L123.352 41.502L128.069 64.1451L131.878 67.9539L137.644 68.8624L145.471 62.1534L146.554 49.0846L174.159 47.4773L174.125 47.4423Z" fill="#FFFDF7"/>
<path d="M166.088 21.4457C166.088 21.4457 166.402 21.5155 166.542 21.5854C167.346 21.83 167.87 22.5638 167.8 23.3675C167.8 23.5073 167.765 23.6471 167.695 23.7869C167.45 24.7303 166.472 25.2195 165.529 24.9749C165.459 24.9749 165.389 24.94 165.319 24.94C150.887 20.7468 135.408 22.9832 127.476 24.7303C124.226 25.4292 122.094 28.609 122.688 31.9985C123.317 35.5277 124.401 38.9522 125.414 42.2019C125.868 43.7394 126.322 45.1371 126.707 46.5348C127.93 50.9376 129.328 59.1143 130.026 63.587C130.306 65.3691 131.843 66.662 133.661 66.7319C136.735 66.8018 139.321 65.7186 141.278 63.7967C143.2 61.8748 144.283 59.2541 144.213 56.4936C144.074 45.8709 141.348 39.4414 141.313 39.3715C140.929 38.4979 141.313 37.4845 142.222 37.0652C143.095 36.6809 144.108 37.0652 144.528 37.9737C144.598 38.1135 145.262 39.7558 146.03 42.6212C146.24 43.6345 146.52 44.8226 146.764 46.1504C147.253 48.9459 147.673 52.4052 147.743 56.3888C147.778 60.0927 146.38 63.622 143.759 66.2427C141.138 68.8285 137.644 70.2262 133.94 70.1214C130.096 70.0166 127.161 67.5007 126.602 64.0762C126.113 61.1061 125.344 56.4936 124.54 52.4751C124.261 51.2521 124.016 50.0291 123.737 49.0158C123.597 48.4567 123.492 47.9325 123.317 47.4084C122.968 46.0456 122.514 44.6479 122.059 43.1803C121.046 39.9306 119.893 36.2615 119.264 32.4877C119.124 31.684 119.054 30.8803 119.159 30.1116C119.229 28.8536 119.543 27.6655 120.068 26.5823C121.256 23.9266 123.632 21.865 126.707 21.2011C134.953 19.419 150.957 17.0778 166.053 21.3758L166.088 21.4457Z" fill="#1E1E1E"/>
<path d="M163.048 55.2702C162.768 56.004 162.069 56.4932 161.3 56.4233C145.786 55.41 142.326 42.5509 142.291 42.3762C142.047 41.4327 142.606 40.4893 143.549 40.2447C144.493 40.0001 145.436 40.5592 145.646 41.5026C145.751 41.9219 148.581 52.0904 161.51 52.929C162.454 52.964 163.187 53.8026 163.118 54.781C163.118 54.9557 163.083 55.0955 163.013 55.2702H163.048Z" fill="#1E1E1E"/>
<path d="M160.532 21.5504C160.881 20.8865 162.727 20.5199 163.495 20.6947C178.766 23.7347 179.401 36.8905 179.401 37.0302C179.506 38.0086 178.842 38.8473 177.863 38.987C176.885 39.0919 176.046 38.428 175.942 37.4496C175.872 37.0302 174.439 26.5822 161.72 24.0314C160.776 23.8567 160.147 22.9482 160.357 21.9698C160.392 21.795 160.427 21.6553 160.532 21.5155V21.5504Z" fill="#1E1E1E"/>
<path d="M127.72 121.872L135.513 135.709C136.002 136.583 135.722 137.631 134.884 138.085C134.045 138.54 132.962 138.295 132.508 137.457L124.68 123.584C124.226 122.745 124.541 121.697 125.344 121.173L125.659 121.068C126.428 120.824 127.301 121.103 127.72 121.837V121.872Z" fill="#1E1E1E"/>
<path d="M132.438 118.203C132.578 117.609 133.032 117.155 133.591 116.98C133.905 116.875 134.255 116.84 134.569 116.91L148.442 120.335C149.385 120.544 149.979 121.488 149.735 122.431C149.49 123.375 148.547 123.934 147.603 123.689L133.731 120.3C132.752 120.055 132.193 119.112 132.438 118.203Z" fill="#1E1E1E"/>
<path d="M112.625 138.959L117.237 125.96C117.412 125.436 117.831 125.017 118.355 124.842C118.67 124.737 119.089 124.737 119.474 124.842C120.382 125.157 120.871 126.135 120.557 127.078L115.909 140.112C115.595 141.021 114.582 141.475 113.673 141.16C112.765 140.846 112.31 139.833 112.625 138.924V138.959Z" fill="#1E1E1E"/>
</g>
<defs>
<clipPath id="clip0_4750_4818">
<rect width="245.772" height="210" fill="white" transform="translate(0.162109 0.2771)"/>
</clipPath>
</defs>
</svg>
