<svg width="196" height="200" viewBox="0 0 196 200" fill="none" xmlns="http://www.w3.org/2000/svg">
<path d="M183.427 120.707C186.695 124.544 183.874 132.861 176.796 142.366C176.015 143.444 175.2 144.531 174.309 145.6C173.718 146.276 173.162 146.944 172.613 147.646C168.777 152.129 164.147 156.728 158.904 161.151C153.139 166.091 147.283 170.194 141.793 173.425C140.849 173.97 139.932 174.473 139.04 174.934C138.76 175.108 138.445 175.29 138.157 175.43C127.338 181.066 118.392 182.684 115.032 178.761C111.591 174.643 114.944 165.556 122.925 155.338C123.329 154.777 123.782 154.277 124.168 153.792C124.254 153.7 124.339 153.609 124.425 153.517C123.977 152.836 123.53 152.156 123.083 151.475C111.339 133.882 103.763 129.063 103.688 129.045L82.5097 119.012C75.9764 115.876 71.2434 109.776 69.7873 102.722L66.1225 84.6806C65.6772 82.4984 64.7919 80.4203 63.423 78.5641C62.453 77.1852 61.1945 75.9462 59.7311 74.8987C57.9167 73.5768 57.1446 71.2218 57.8625 69.1215C58.7907 66.3995 60.7076 64.2298 63.2194 63.0631L59.7359 60.2777C55.8258 57.2002 52.6114 53.1359 50.5335 48.5879L49.2509 45.889C49.047 45.3296 49.1058 44.6723 49.4496 44.1619C49.8273 43.6435 50.4463 43.3897 51.0698 43.4565L55.9901 44.0071C58.8127 44.3038 61.5124 44.987 64.115 46.015C64.605 44.6121 65.4298 43.4159 66.5218 42.4424C69.2252 40.1222 73.4213 39.8792 76.7285 41.9199L78.0761 42.7803C79.4157 43.6069 80.9299 43.9633 82.5011 43.8056C86.0737 43.4958 92.2312 42.9312 96.6758 42.3791C99.1431 42.0808 101.57 42.9716 103.184 44.8056C104.092 45.7702 105.289 47.2025 106.799 49.204C107.761 49.1907 109.263 49.1925 110.871 49.4909C112.554 49.8072 114.155 50.6792 115.32 51.9761C116.668 53.444 117.951 54.7846 119.134 56.0058C121.326 56.8093 130.562 60.3412 137.08 65.3747C139.804 67.5178 141.87 70.353 143.111 73.6335C144.735 78.0746 146.969 86.303 148.344 100.562C148.631 103.282 149.475 105.941 150.913 108.389C152.73 111.533 155.782 116.423 159.908 121.772C160.373 122.377 160.83 122.948 161.287 123.519C171.654 118.24 180.151 116.836 183.427 120.707Z" fill="#FFFDF7"/>
<path d="M176.796 142.366C176.015 143.445 175.2 144.531 174.309 145.6C173.718 146.276 173.162 146.944 172.613 147.646C168.777 152.129 164.147 156.728 158.904 161.151C153.139 166.091 147.283 170.194 141.793 173.425C140.849 173.97 139.932 174.473 139.04 174.935C138.76 175.108 138.445 175.29 138.157 175.43C127.338 181.066 118.392 182.684 115.032 178.761C111.591 174.643 114.943 165.557 122.925 155.338C123.329 154.777 123.782 154.277 124.168 153.792C124.253 153.701 124.339 153.609 124.425 153.517C124.776 153.041 125.17 152.59 125.598 152.131C129.348 157.856 133.471 164.851 137.929 173.411C138.854 172.941 139.73 172.412 140.673 171.867C146.172 168.67 152.019 164.533 157.826 159.619C163.028 155.17 167.658 150.571 171.493 146.088C172.05 145.42 172.64 144.744 173.197 144.076C174.08 142.973 174.903 141.921 175.676 140.808C169.345 135.659 164.027 129.805 159.733 124.352C160.276 124.08 160.778 123.783 161.287 123.519C171.654 118.24 180.151 116.836 183.427 120.707C186.695 124.544 183.874 132.861 176.796 142.366Z" fill="#1E1E1E"/>
<path d="M177.098 141.83C176.291 142.951 175.442 144.045 174.533 145.19L172.796 147.21C168.771 151.952 164.107 156.559 158.923 160.933C153.244 165.781 147.404 169.952 141.566 173.372C140.589 173.925 139.679 174.462 138.754 174.931C138.626 174.997 138.465 175.071 138.33 175.103C138.025 175.175 137.73 175.138 137.428 175.067C136.965 174.926 136.606 174.618 136.401 174.202C132.362 166.508 128.323 159.565 124.425 153.517C123.978 152.837 123.53 152.156 123.083 151.476C111.339 133.882 103.764 129.063 103.688 129.046L82.5099 119.012C75.9766 115.877 71.2436 109.777 69.7875 102.723L66.1227 84.6811C65.6774 82.4989 64.7921 80.4209 63.4231 78.5646C62.4532 77.1857 61.1947 75.9467 59.7313 74.8992C57.9169 73.5774 57.1447 71.2223 57.8627 69.122C58.7909 66.4001 60.7078 64.2304 63.2196 63.0636C63.4405 62.9398 63.6694 62.8498 63.8983 62.7599C65.0767 62.3021 66.3113 62.0812 67.56 62.0715C69.3067 62.051 71.056 62.4947 72.6566 63.3667L78.0943 66.4042C80.851 67.9318 83.1026 70.0437 84.7415 72.5867C85.3382 73.4463 85.8495 74.3976 86.2592 75.3729L90.1896 84.2721C90.1896 84.2721 90.2217 84.4075 90.2377 84.4752C90.4719 85.3133 90.0729 86.1942 89.2329 86.5719C88.393 86.9495 87.3348 86.5567 86.9492 85.6829L84.3574 79.7195C84.3574 79.7195 84.1757 79.4051 84.1276 79.202L83.0526 76.7757C81.6819 73.7045 79.3937 71.1365 76.3778 69.42L70.9063 66.3906C69.8339 65.7867 68.5887 65.5096 67.3818 65.5452L67.3479 65.5532C67.3479 65.5532 67.0273 65.5577 66.8919 65.5897C66.3005 65.6583 65.6912 65.8026 65.1319 66.0065C63.2328 66.7422 61.805 68.2599 61.1823 70.1589C60.8946 70.9062 61.1467 71.6687 61.7488 72.098C63.5132 73.3602 65.0131 74.8637 66.2325 76.541C67.841 78.8052 68.9739 81.325 69.4976 83.9892L73.1624 102.031C74.37 108.036 78.4226 113.224 83.9832 115.875L105.287 125.986C105.781 126.262 113.667 131.186 125.951 149.546C130.1 155.748 134.347 162.964 138.617 171.032C138.999 170.834 139.373 170.603 139.781 170.363C145.433 167.059 151.119 162.995 156.653 158.289C161.684 154.024 166.236 149.55 170.124 144.983L171.828 142.971C172.325 142.353 172.822 141.735 173.285 141.125C167.6 136.287 162.162 130.533 157.09 123.906C152.889 118.395 149.771 113.378 147.862 110.149C146.177 107.259 145.187 104.134 144.847 100.89C143.493 87.0196 141.364 79.0878 139.789 74.8498C138.801 72.1883 137.109 69.8724 134.912 68.1408C132.062 65.9202 128.61 64.0211 125.499 62.506C121.146 60.4269 117.559 59.1674 117.517 59.1415C117.282 59.0542 117.031 58.8992 116.847 58.7282C116.839 58.6944 116.79 58.6347 116.706 58.583C116.349 58.1314 116.204 57.5222 116.423 56.9343C116.738 56.0018 117.731 55.5164 118.63 55.8397C118.638 55.8736 118.831 55.935 119.1 56.0143C121.292 56.8178 130.529 60.3497 137.047 65.3833C139.77 67.5264 141.836 70.3615 143.077 73.6421C144.701 78.0832 146.936 86.3116 148.31 100.57C148.597 103.29 149.442 105.95 150.879 108.398C152.696 111.542 155.748 116.431 159.875 121.781C160.34 122.386 160.797 122.957 161.254 123.527C166.112 129.705 171.31 135.051 176.722 139.488C177.432 140.071 177.571 141.11 177.064 141.838L177.098 141.83Z" fill="#1E1E1E"/>
<path d="M118.584 72.4007C118.584 72.4007 118.329 72.5325 118.194 72.5645C117.449 72.7409 116.644 72.3596 116.264 71.6631C111.487 62.3568 107.515 56.1485 104.587 52.0877C104.537 52.028 104.487 51.9683 104.437 51.9087C102.837 49.6783 101.548 48.1605 100.624 47.1281C99.7505 46.1555 98.4234 45.6833 97.1051 45.8525C92.6186 46.3788 86.4273 46.9514 82.787 47.2773C80.4809 47.5017 78.2435 46.9592 76.2341 45.7192L74.8945 44.8926C72.8851 43.6527 70.3697 43.7479 68.7922 45.0866C68.0244 45.7689 67.482 46.648 67.1907 47.6821C66.7132 49.4395 67.2698 51.4881 68.694 52.9738C71.7838 56.2099 74.6028 58.1517 76.4911 58.2764C78.2699 58.3914 80.9313 58.762 83.6168 59.2341C83.6586 59.26 83.7263 59.2439 83.7602 59.2359C83.8617 59.2119 83.9793 59.2555 84.0969 59.2992C86.5133 59.6921 88.904 60.1268 90.5536 60.451C91.8584 60.6782 92.7509 60.8243 92.8685 60.868C93.8109 61.0737 94.4236 62.001 94.2517 62.9353C94.119 63.4314 93.8268 63.8581 93.4109 64.0638C93.0706 64.2874 92.6306 64.3916 92.1763 64.2847C92.1763 64.2847 91.8815 64.2473 91.3515 64.1226C90.8714 64.0575 90.1562 63.9052 89.3394 63.7769C87.6141 63.4348 85.2992 63.0179 83.0261 62.6268C80.4663 62.2322 77.9144 61.8714 76.2372 61.7324C73.3967 61.5114 69.9979 59.3852 66.184 55.3555C64.652 53.7166 63.7328 51.6466 63.5984 49.5694C63.5174 48.6235 63.5797 47.6793 63.8274 46.7628C63.9067 46.4938 63.994 46.2587 64.1151 46.0155C64.605 44.6127 65.4299 43.4165 66.5219 42.443C69.2253 40.1227 73.4214 39.8797 76.7285 41.9204L78.0761 42.7809C79.4157 43.6075 80.9299 43.9638 82.5011 43.8062C86.0738 43.4963 92.2312 42.9318 96.6759 42.3797C99.1432 42.0813 101.57 42.9721 103.184 44.8061C104.092 45.7708 105.289 47.2031 106.799 49.2045C107.546 50.2431 108.4 51.4349 109.294 52.7959C112.053 56.8968 115.451 62.4906 119.355 70.0733C119.801 70.8972 119.45 71.9812 118.584 72.4007Z" fill="#1E1E1E"/>
<path d="M93.0721 68.2185C92.2936 68.4029 91.4546 68.0297 91.093 67.2574C89.7544 64.3216 89.0017 63.1058 88.9679 63.1138C88.4549 62.3059 88.7043 61.246 89.5122 60.7329C90.3201 60.2199 91.38 60.4693 91.893 61.2772C91.9091 61.3449 92.7534 62.6463 94.2239 65.8368C94.6095 66.7106 94.2425 67.7269 93.3768 68.1464L93.0383 68.2265L93.0721 68.2185Z" fill="#1E1E1E"/>
<path d="M130.329 68.2607C130.095 68.7808 129.677 69.13 129.169 69.2502C128.831 69.3304 128.468 69.309 128.108 69.1442C127.546 68.8841 125.967 68.257 116.881 58.7199C116.873 58.6861 116.857 58.6184 116.74 58.5747C115.549 57.3197 114.25 55.9115 112.768 54.3322C112.094 53.5982 111.189 53.0976 110.213 52.8999C109.91 52.8286 109.581 52.7992 109.295 52.7956C107.601 52.5889 106.173 52.7483 106.14 52.7563C105.54 52.7911 104.944 52.539 104.587 52.0874C104.571 52.0197 104.487 51.968 104.438 51.9083C104.389 51.7053 104.258 51.4505 104.269 51.1976C104.154 50.2596 104.874 49.3743 105.778 49.2674C105.778 49.2674 106.2 49.2389 106.834 49.1962C107.796 49.1829 109.297 49.1847 110.905 49.4831C112.588 49.7994 114.189 50.6714 115.354 51.9683C116.703 53.4362 117.985 54.7768 119.168 55.998C121.783 58.7388 123.907 60.9166 125.567 62.4896C127.709 64.5918 129.053 65.739 129.497 65.9555C130.378 66.3545 130.762 67.3717 130.363 68.2526L130.329 68.2607Z" fill="#1E1E1E"/>
<path d="M66.8601 49.1539C66.4611 50.0348 65.4358 50.3848 64.5549 49.9858L63.5983 49.5689C61.0892 48.483 58.4234 47.7918 55.6266 47.4532L53.7561 47.2528C55.5962 51.2494 58.4116 54.8364 61.879 57.554L67.5599 62.071L68.0862 62.4825C68.83 63.057 68.9511 64.1722 68.3427 64.9239C68.0942 65.233 67.7878 65.4485 67.4155 65.5367L67.3816 65.5447C67.3816 65.5447 67.061 65.5491 66.9256 65.5812C66.5631 65.5598 66.2103 65.4289 65.9093 65.2142L63.2194 63.0631L59.7359 60.2777C55.8258 57.2002 52.6114 53.1359 50.5335 48.5879L49.2509 45.889C49.047 45.3296 49.1058 44.6723 49.4496 44.1619C49.8273 43.6435 50.4463 43.3897 51.0698 43.4565L55.9901 44.0071C58.8127 44.3038 61.5124 44.987 64.115 46.015C64.7448 46.259 65.3825 46.537 66.0283 46.8487C66.9092 47.2478 67.301 48.2988 66.8601 49.1539Z" fill="#1E1E1E"/>
<path d="M124.778 90.5558C124.304 90.668 123.824 90.603 123.397 90.3108L82.6911 62.4181C81.8877 61.8934 81.6989 60.7943 82.2236 59.9909C82.7901 59.2133 83.8474 58.9987 84.6508 59.5233L125.357 87.4161C126.16 87.9407 126.349 89.0398 125.825 89.8433C125.558 90.228 125.184 90.4596 124.778 90.5558Z" fill="#1E1E1E"/>
<path d="M114.836 103.064C114.328 103.185 113.798 103.06 113.363 102.734L84.766 80.0878C84.465 79.8732 84.2753 79.5249 84.1532 79.1606C83.2742 75.9015 83.9095 68.9237 92.3695 65.7049C93.2852 65.3451 94.2578 65.8297 94.6096 66.7115C94.9614 67.5933 94.4929 68.6336 93.603 68.9516C87.1355 71.3768 87.1782 76.0851 87.3937 77.7498L115.465 99.9844C116.216 100.593 116.329 101.674 115.755 102.418C115.506 102.727 115.166 102.95 114.794 103.039L114.836 103.064Z" fill="#1E1E1E"/>
<path d="M118.16 103.668C116.4 104.085 114.758 103.795 113.538 102.868C110.655 100.656 110.972 95.5049 114.308 91.1761C115.783 89.254 117.675 87.7336 119.608 86.9899C121.795 86.1144 123.903 86.2588 125.39 87.4078C128.273 89.6204 127.948 94.7375 124.62 99.1001C123.145 101.022 121.253 102.543 119.32 103.286C118.93 103.45 118.532 103.58 118.16 103.668ZM121.536 90.0006C121.299 90.0567 121.062 90.1128 120.841 90.2366C119.501 90.7683 118.121 91.8817 117.031 93.3192C114.845 96.1605 114.503 99.2441 115.639 100.119C116.124 100.505 116.976 100.481 118.027 100.09C119.367 99.5578 120.747 98.4445 121.837 97.0069C124.024 94.1656 124.366 91.082 123.263 90.1992C122.87 89.8991 122.289 89.8581 121.578 90.0264L121.536 90.0006Z" fill="#1E1E1E"/>
<path d="M117.167 92.6803C116.693 92.7925 116.171 92.7017 115.744 92.4095L102.19 82.5722C101.413 82.0057 101.232 80.9404 101.791 80.129C102.357 79.3514 103.456 79.1626 104.234 79.7291L117.787 89.5664C118.565 90.1329 118.746 91.1982 118.187 92.0097C117.947 92.3526 117.573 92.5841 117.167 92.6803Z" fill="#1E1E1E"/>
<path d="M49.9508 42.2254C50.2539 29.1904 62.6812 13.9699 76.7156 15.4606C89.1793 16.7845 96.5819 30.3343 93.1727 41.6983" stroke="#1E1E1E" stroke-width="3.47832" stroke-linecap="round"/>
<path d="M38.3251 50.3398C27.7424 45.6834 7.80762 39.1375 6.42379 56.7122C4.12411 85.9182 37.7942 91.5133 55.8005 104.838C61.7459 109.238 66.6513 116.675 67.6853 124.073C69.0923 134.138 58.5162 126.817 56.8561 121.805C53.1669 110.667 62.7178 101.481 67.1771 92.5621" stroke="#1E1E1E" stroke-width="3.47832" stroke-linecap="round"/>
</svg>
