<svg width="175" height="184" viewBox="0 0 175 184" fill="none" xmlns="http://www.w3.org/2000/svg">
<g clip-path="url(#clip0_4750_4805)">
<path d="M150.912 135.029C149.946 137.929 148.803 140.759 147.606 143.466C146.616 145.641 145.423 147.894 144.1 150.237C132.263 146.445 116.866 141.57 102.116 136.885L97.3448 135.361C78.7538 129.468 67.639 125.879 61.1919 123.757C62.9257 123.38 64.4952 122.861 65.8809 122.31C71.5469 120.05 76.2722 115.388 78.8181 109.546L80.0845 106.662C81.2386 103.986 81.8911 101.145 82.0593 98.2565L85.7104 95.6033C89.6879 92.174 92.6793 87.8887 94.4169 83.1928C95.8656 85.0778 98.3477 86.6902 100.105 87.6823C99.7553 88.3784 99.8333 89.2259 100.367 89.8506C101.157 90.7477 107.401 95.5246 152.592 104.44C153.161 105.943 154.089 109.062 154.366 114.152C154.447 120.57 153.244 127.824 150.912 135.029Z" fill="#FFFDF7"/>
<path d="M154.672 135.849C153.712 138.711 152.599 141.585 151.296 144.462C151.227 144.639 151.114 144.847 151.009 145.018C149.85 147.504 148.469 150.179 146.818 152.881C146.811 152.918 146.798 152.992 146.718 153.015C146.705 153.089 146.692 153.162 146.599 153.26C146.599 153.26 146.58 153.37 146.537 153.4C146.53 153.437 146.487 153.467 146.444 153.497C144.743 156.267 142.921 158.864 140.99 161.214C130.598 174.161 117.69 180.525 108.116 176.147C98.1645 171.55 94.671 156.76 98.2682 139.584L96.2251 138.92C59.19 127.16 52.9397 124.997 51.5646 124.414L51.5279 124.407C50.5529 124.349 49.5173 124.204 48.4514 124.016C45.0334 123.414 41.3018 122.225 37.2955 120.23C14.5356 108.751 11.0102 98.0116 10.8977 97.575C10.796 97.2918 10.8046 97.028 10.8132 96.7642C13.8846 76.122 19.4639 56.3009 27.4171 37.8458C30.2461 31.2581 36.5496 27.102 43.5002 27.2286C49.3892 27.3575 57.2522 28.3271 64.8345 31.7483C67.0258 25.7682 72.0211 19.7898 78.7307 12.9011C81.1841 10.3778 84.8916 9.5536 88.0093 10.7855C89.3541 11.3257 90.6794 11.9763 91.9053 12.7609C95.4555 14.9785 96.8419 19.581 95.087 23.5159C86.7576 42.17 91.3014 54.2263 94.007 61.4488L94.552 62.8713C96.1005 67.1992 96.54 72.0137 95.8771 77.278C95.6006 79.2756 95.0972 81.2711 94.4164 83.1975C92.6789 87.8934 89.6874 92.1787 85.71 95.608L82.0589 98.2612C81.8907 101.149 81.2382 103.99 80.0841 106.667L78.8177 109.551C76.2717 115.393 71.5465 120.055 65.8805 122.315C64.4947 122.866 62.9253 123.385 61.1915 123.762C67.6386 125.884 78.7534 129.473 97.3444 135.366L102.116 136.889C116.865 141.574 132.263 146.449 144.1 150.242C145.423 147.898 146.616 145.645 147.605 143.47C148.803 140.764 149.946 137.933 150.912 135.034C153.244 127.828 154.447 120.575 154.366 114.156C154.089 109.067 153.161 105.948 152.592 104.445C107.4 95.5293 101.156 90.7524 100.367 89.8553C99.7961 89.2241 99.7549 88.3831 100.105 87.687C100.211 87.5162 100.354 87.3518 100.49 87.2242C101.251 86.5626 102.342 86.6035 103.06 87.2606C103.456 87.5957 109.983 92.271 154.299 100.995C154.961 101.111 155.514 101.626 155.698 102.302C155.897 102.678 156.191 103.375 156.537 104.421C157.145 106.347 157.859 109.391 158.102 113.602L158.212 113.622C158.212 113.622 158.247 113.855 158.234 113.929C158.251 114.045 158.225 114.192 158.236 114.346C158.328 120.918 157.142 128.288 154.672 135.849Z" fill="#FFFDF7"/>
<path d="M154.671 135.846C153.712 138.709 152.599 141.582 151.296 144.46C151.227 144.637 151.114 144.844 151.008 145.015C149.85 147.502 148.469 150.176 146.817 152.879C146.792 153.026 146.662 153.116 146.606 153.22C146.606 153.22 146.58 153.367 146.573 153.404C146.567 153.441 146.524 153.471 146.48 153.501C144.779 156.271 142.957 158.868 141.027 161.218C130.634 174.165 117.726 180.529 108.153 176.15C98.201 171.553 94.7075 156.764 98.3047 139.588C98.3586 139.066 98.4926 138.522 98.6201 138.014C98.633 137.94 98.6525 137.83 98.6719 137.72C99.6016 138.035 100.568 138.357 101.541 138.642C116.902 143.511 132.942 148.613 144.926 152.431C146.478 149.863 147.988 147.098 149.292 144.22C150.595 141.342 151.708 138.469 152.667 135.606C155.137 128.046 156.323 120.676 156.231 114.104C156.257 113.957 156.247 113.803 156.229 113.686C156.214 113.343 156.192 113.036 156.14 112.685L158.101 113.6L158.212 113.619C158.212 113.619 158.246 113.853 158.233 113.926C158.214 114.036 158.188 114.183 158.236 114.343C158.327 120.915 157.141 128.286 154.671 135.846Z" fill="#1E1E1E"/>
<path d="M154.46 136.187C153.432 139.226 152.262 142.204 151.009 145.014C149.85 147.501 148.469 150.175 146.818 152.878C146.812 152.914 146.799 152.988 146.719 153.012C146.706 153.085 146.693 153.159 146.6 153.256C146.6 153.256 146.58 153.366 146.574 153.403C146.567 153.44 146.524 153.47 146.481 153.5C146.07 154.11 145.374 154.404 144.639 154.275L144.419 154.236C132.435 150.417 116.395 145.315 101.034 140.447L98.3053 139.587L96.2622 138.923C59.2272 127.163 52.9768 125 51.6017 124.416L51.565 124.41C51.565 124.41 51.5715 124.373 51.498 124.36C51.1066 124.215 50.8083 123.973 50.5596 123.664C49.9542 122.8 50.1551 121.66 51.0197 121.055C51.3656 120.813 51.7288 120.687 52.1698 120.765C52.2563 120.704 52.3665 120.724 52.4401 120.737C52.4768 120.743 52.5136 120.75 52.5438 120.793C52.7341 120.789 52.8746 120.851 53.0454 120.957C53.2897 121.076 53.9989 121.353 55.5036 121.845C56.7943 122.262 58.6169 122.887 61.2286 123.764C67.6757 125.886 78.7905 129.476 97.3815 135.369L102.153 136.892C116.902 141.577 132.3 146.452 144.137 150.245C145.46 147.901 146.653 145.648 147.643 143.473C148.84 140.766 149.983 137.936 150.949 135.037C153.281 127.831 154.484 120.578 154.403 114.159C154.126 109.07 153.198 105.95 152.629 104.448C107.437 95.5322 101.193 90.7552 100.404 89.8581C99.8332 89.2269 99.792 88.386 100.142 87.6898C100.248 87.519 100.391 87.3547 100.527 87.2271C101.288 86.5654 102.38 86.6064 103.097 87.2635C103.493 87.5985 110.021 92.2738 154.336 100.997C154.998 101.114 155.551 101.629 155.735 102.305C155.934 102.681 156.228 103.377 156.574 104.424C157.182 106.35 157.896 109.394 158.139 113.605C158.126 113.679 158.154 113.949 158.141 114.022C158.248 120.938 156.973 128.596 154.497 136.193L154.46 136.187Z" fill="#1E1E1E"/>
<path d="M47.3979 115.375C41.9217 114.41 35.9328 111.194 32.657 107.85C28.1293 103.224 29.9405 99.8295 30.9154 98.5993C31.5487 97.8014 32.7464 97.6715 33.5442 98.3049C34.3421 98.9382 34.4784 100.099 33.8386 100.934C32.814 102.231 34.092 104.01 35.3136 105.249C40.2305 110.246 50.6794 113.529 53.9544 111.075C56.8402 108.893 59.3517 104.106 61.4261 96.8547C62.58 92.8896 61.1785 88.5876 58.0109 86.1343C47.0705 77.6871 28.1645 75.9451 27.9807 75.9127C26.9019 75.7982 26.1862 74.9141 26.2941 73.8721C26.4021 72.83 27.2927 72.0776 28.298 72.179C29.1195 72.2481 48.4731 74.0311 60.2784 83.1614C64.7129 86.596 66.5729 92.381 64.9998 97.8638C62.6531 106.014 59.7937 111.27 56.2031 114.01C54.0155 115.671 50.7857 115.935 47.4044 115.339L47.3979 115.375Z" fill="#1E1E1E"/>
<path d="M46.8513 105.58C46.6308 105.541 46.4168 105.466 46.2157 105.316C37.9068 100.213 26.7641 98.2865 23.119 97.6817C21.9797 97.4808 21.6856 97.4289 21.3678 97.2971C20.4208 96.8648 20.0078 95.7688 20.4033 94.8154C20.7858 93.9354 21.7651 93.5396 22.7077 93.7816L23.7368 93.9631C27.5591 94.6371 39.2229 96.6179 48.148 102.095C49.0387 102.631 49.2918 103.775 48.7558 104.665C48.3322 105.349 47.5561 105.666 46.8578 105.543L46.8513 105.58Z" fill="#1E1E1E"/>
<path d="M63.3407 90.9396C63.0099 90.8813 62.6986 90.7127 62.4002 90.4706C61.6521 89.7703 61.5957 88.5856 62.296 87.8375C68.9169 80.592 70.5654 72.9624 70.7852 67.8473C70.9124 65.4065 69.5782 63.087 67.4356 61.9134C55.4469 55.3277 38.6702 52.9001 38.5167 52.9109C37.5374 52.6624 36.7784 51.8086 36.9166 50.8098C37.0981 49.7807 38.019 49.0715 39.0178 49.2097C39.7161 49.3328 56.6095 51.7431 69.2209 58.666C72.6088 60.5139 74.6848 64.2148 74.5015 68.0479C74.2451 73.8007 72.3978 82.3427 65.0269 90.4033C64.5989 90.8962 63.9223 91.0801 63.3342 90.9764L63.3407 90.9396Z" fill="#1E1E1E"/>
<path d="M80.0838 106.664L78.8173 109.548C76.2714 115.39 71.5461 120.052 65.8801 122.312C64.4944 122.863 62.9249 123.383 61.1911 123.759C60.361 123.954 59.4574 124.135 58.5299 124.237C56.4286 124.549 54.0656 124.625 51.5643 124.411L51.5275 124.405C50.5525 124.346 49.5169 124.202 48.4511 124.014C45.033 123.411 41.3014 122.222 37.2952 120.228C14.5352 108.749 11.0098 98.009 10.8973 97.5723C10.7957 97.2891 10.8043 97.0254 10.8129 96.7616C13.8843 76.1193 19.4635 56.2982 27.4168 37.8431C30.2458 31.2554 36.5493 27.0994 43.4998 27.226C49.3889 27.3549 57.2518 28.3245 64.8341 31.7457C65.9584 32.2471 67.0697 32.822 68.168 33.4704C69.5171 34.201 70.8468 35.0418 72.1203 35.9863C77.0499 39.622 79.5456 45.6706 78.6169 51.7976C77.9624 56.1539 76.3783 60.1947 73.884 63.8098C73.884 63.8098 73.871 63.8833 73.791 63.9071C73.2009 64.6746 72.1135 64.8239 71.2962 64.3009C70.4552 63.6978 70.2388 62.5607 70.8051 61.7131C71.1034 61.311 71.3714 60.8656 71.5962 60.4505C73.3405 57.6506 74.4556 54.5503 74.9286 51.223C75.6478 46.4992 73.7101 41.7995 69.9199 39.009C61.1936 32.6196 50.6973 31.1099 43.4463 30.9682C38.0113 30.8436 33.0718 34.1412 30.8328 39.3171C23.1043 57.3571 17.6093 76.7004 14.5919 96.8216C15.3791 98.5899 20.0457 107.371 38.9831 116.887C43.4716 119.157 47.8712 120.425 52.1324 120.759L52.4999 120.824C53.8122 120.904 55.1071 120.867 56.3718 120.787C59.1412 120.555 61.8284 119.93 64.4766 118.881C69.2433 116.993 73.2379 113.036 75.4013 108.075L76.6245 105.221C77.9602 102.159 78.5131 98.8082 78.3289 95.5545C78.1123 92.4846 77.245 89.4516 75.6751 86.7495C75.1928 85.8307 75.504 84.7108 76.3924 84.1853C77.2809 83.6599 78.4376 83.9775 78.9198 84.8963C80.1935 87.1293 81.091 89.5613 81.5648 92.0323C81.7249 92.629 81.8114 93.2127 81.8915 93.8331C82.123 95.314 82.1578 96.836 82.0889 98.3018C81.9206 101.19 81.2681 104.031 80.1141 106.708L80.0838 106.664Z" fill="#1E1E1E"/>
<path d="M95.8766 77.2777C95.6002 79.2753 95.0967 81.2708 94.416 83.1972C92.6785 87.8931 89.687 92.1784 85.7096 95.6077L82.0585 98.2609L81.3235 98.7755C80.8912 99.0782 80.381 99.1778 79.9032 99.0935C79.4622 99.0157 79.0168 98.7477 78.7141 98.3154C78.1021 97.4875 78.3095 96.3114 79.1742 95.7059L81.8979 93.7987L83.4608 92.6722C86.5044 90.0256 88.8972 86.7716 90.4338 83.215C91.3242 81.1741 91.9336 79.0078 92.2121 76.7831C92.8017 72.1501 92.412 67.9128 91.0667 64.1513L90.552 62.7721C87.8162 55.5063 82.7641 42.034 91.7202 21.9747C92.7166 19.7629 91.9617 17.1666 89.9791 15.9454C88.924 15.2667 87.8062 14.7285 86.6387 14.2574C84.9458 13.542 82.8488 14.0439 81.4546 15.5034C74.918 22.271 70.0847 27.9748 68.2047 33.4793C68.0469 33.9441 67.9324 34.3786 67.8114 34.8499C67.5564 35.8661 66.4647 36.4694 65.5286 36.1906C64.5492 35.9422 63.9329 34.924 64.1879 33.9079C64.391 33.1858 64.5941 32.4637 64.8708 31.7545C67.0621 25.7744 72.0574 19.796 78.767 12.9073C81.2204 10.384 84.928 9.5598 88.0456 10.7916C89.3904 11.3319 90.7157 11.9825 91.9416 12.7671C95.4918 14.9847 96.8782 19.5872 95.1233 23.5221C86.7939 42.1762 91.3377 54.2325 94.0433 61.455L94.5883 62.8774C96.1368 67.2054 96.5763 72.0199 95.9134 77.2842L95.8766 77.2777Z" fill="#1E1E1E"/>
</g>
<defs>
<clipPath id="clip0_4750_4805">
<rect width="174.839" height="183.499" fill="white" transform="translate(0 0.00170898)"/>
</clipPath>
</defs>
</svg>
