<svg width="106" height="198" viewBox="0 0 106 198" fill="none" xmlns="http://www.w3.org/2000/svg">
<path d="M24.0157 133.722C8.4374 115.384 4.43533 97.4437 3.87306 94.3322C3.04619 92.9419 2.38469 91.651 1.85549 90.4924C-0.195153 86.1231 0.598645 80.8931 3.90613 77.4837C10.7857 70.3008 17.0699 68.0168 17.3345 67.9175C17.4668 67.9175 17.5991 67.8513 17.7314 67.8513C18.5252 65.468 20.1128 63.3165 22.3619 61.86C28.3485 57.9541 35.1619 54.8095 36.981 53.982C36.088 47.9907 35.2942 40.3443 34.6658 30.6126C34.4343 26.5743 35.8565 22.5691 38.6348 19.6231C41.4131 16.6109 45.1836 14.9889 49.2518 14.9558C53.32 14.9558 56.5614 17.7694 57.0244 21.5098C57.289 23.4628 57.5536 25.7799 57.8182 28.1962C58.4136 33.8896 59.1081 40.3443 60.0673 43.6544C61.688 49.4471 65.4254 62.9855 65.69 67.2886C68.2699 68.2816 70.3205 70.4332 71.1143 73.313C73.198 81.0255 76.2079 96.0534 72.9004 110.552L75.811 119.39C76.1086 119.29 76.4063 119.257 76.7371 119.357C77.3655 119.489 77.8285 119.985 77.9939 120.614C77.9939 120.681 79.5484 127.599 82.889 136.867C83.1536 137.595 83.4182 138.323 83.6828 139.085H83.782C84.1458 139.085 84.5097 139.118 84.8404 139.118C85.0719 139.118 85.2704 139.118 85.4688 139.184C90.2647 139.449 94.4652 140.541 97.7727 142.296C101.047 144.017 103.561 146.466 104.884 149.578C105.545 151.067 105.843 152.656 105.942 154.377C106.174 159.343 103.892 164.771 99.658 169.968C99.3603 170.299 99.0957 170.63 98.8311 170.961C98.5996 171.193 98.4342 171.391 98.2027 171.623C98.0704 171.822 97.8719 172.02 97.6735 172.186C97.5742 172.351 97.4089 172.517 97.2435 172.682C97.012 172.947 96.7804 173.212 96.5158 173.444C95.9866 174.006 95.4244 174.536 94.829 175.066C94.6637 175.264 94.5313 175.397 94.3991 175.496C91.1577 178.409 87.3872 181.09 83.1536 183.54C80.8053 184.83 78.3577 186.055 75.7779 187.148C73.198 188.24 70.5521 189.2 68.0053 189.928C67.9391 189.928 67.0792 190.193 67.0792 190.193C65.2931 190.722 63.3087 191.12 61.3903 191.451C60.4642 191.649 59.5381 191.815 58.612 191.947C57.8844 192.08 57.1236 192.179 56.396 192.245H56.2306C56.2306 192.245 55.966 192.245 55.8337 192.212C55.6022 192.146 55.3376 192.113 55.073 191.947C54.9407 191.881 54.8084 191.815 54.7092 191.715C50.1779 187.81 39.2632 171.59 32.0859 160.865C29.2415 156.695 26.4301 152.524 25.8017 151.796L25.7356 151.729C25.2394 151.465 24.9087 151.134 24.6772 150.803C23.0896 148.585 24.7102 144.58 25.934 142.196L25.1733 141.236C24.0818 140.872 23.1226 140.21 22.6265 139.052C21.7997 137.132 23.0234 134.98 23.9826 133.689L24.0157 133.722Z" fill="#FFFDF7"/>
<path d="M105.943 154.377C106.174 159.342 103.892 164.771 99.6583 169.968C99.4268 170.332 99.1291 170.663 98.8645 170.994C98.633 171.226 98.4676 171.424 98.2361 171.656C98.0707 171.821 97.9053 172.02 97.7069 172.219C97.6077 172.384 97.4423 172.55 97.2769 172.715C97.0454 172.914 96.7808 173.212 96.5493 173.476C96.0201 174.039 95.4578 174.569 94.8625 175.098C94.6971 175.297 94.5648 175.429 94.4325 175.529C91.1911 178.442 87.4206 181.123 83.187 183.572C80.8387 184.863 78.3912 186.088 75.8113 187.18C73.2315 188.273 70.5855 189.233 68.0387 189.961C67.9726 189.961 67.1126 190.226 67.1126 190.226C65.3266 190.755 63.3421 191.152 61.4237 191.483C60.2992 191.682 59.2077 191.881 58.1824 192.013L56.9917 190.524C57.4547 190.49 57.9178 190.424 58.4139 190.325C61.1591 189.928 63.9705 189.299 66.8149 188.471C66.8149 188.471 67.0465 188.405 67.1457 188.339C67.2449 188.339 67.278 188.339 67.3441 188.273C69.8909 187.544 72.5369 186.584 75.1167 185.492C77.6966 184.4 80.1441 183.175 82.4924 181.884C86.726 179.435 90.4966 176.753 93.7379 173.841C95.1601 172.583 96.45 171.259 97.6407 169.902C90.5296 160.104 85.37 148.551 81.9302 139.118H81.9632C82.5255 139.084 83.0878 139.084 83.6501 139.084H83.7493C84.1131 139.084 84.4769 139.118 84.8077 139.118C85.0392 139.118 85.2377 139.118 85.4361 139.184C90.232 139.449 94.4325 140.541 97.74 142.295C101.014 144.017 103.528 146.466 104.851 149.577C105.513 151.067 105.81 152.656 105.909 154.377H105.943Z" fill="#1E1E1E"/>
<path d="M99.691 170C99.3933 170.331 99.1287 170.662 98.8641 170.993C98.6326 171.225 98.4672 171.423 98.2357 171.655C98.1034 171.854 97.9049 172.052 97.7065 172.218C97.6073 172.383 97.4419 172.549 97.2765 172.714C97.045 172.979 96.8135 173.244 96.5489 173.476C96.0197 174.038 95.4574 174.568 94.862 175.098C91.5876 178.01 87.7179 180.791 83.352 183.34C80.6729 184.796 78.2254 185.988 75.7778 187.047C73.0326 188.206 70.3535 189.165 67.8399 189.861C67.7076 189.927 67.6414 189.96 67.5422 189.993C67.5422 189.993 67.476 189.993 67.443 190.026C67.3107 190.092 67.1784 190.125 67.013 190.125C65.1277 190.688 63.2424 191.152 61.4233 191.483C60.4972 191.681 59.5711 191.847 58.645 191.979C57.9174 192.111 57.1567 192.211 56.429 192.277H56.2636C56.2636 192.277 55.999 192.277 55.8667 192.244C55.6352 192.178 55.3706 192.145 55.106 191.979C54.9737 191.913 54.8414 191.847 54.7422 191.747C50.2109 187.841 39.2962 171.622 32.119 160.897C29.2745 156.726 26.4632 152.556 25.8347 151.827L25.7686 151.761C25.2394 151.298 25.0409 150.57 25.3055 149.908C25.6694 149.047 26.6285 148.65 27.4554 148.981C27.9185 149.179 28.1169 149.246 29.9691 151.827C30.9613 153.251 32.4497 155.469 34.7319 158.878C41.3469 168.742 52.1293 184.763 56.5613 188.934C57.0574 188.868 57.5866 188.801 58.1158 188.702C60.7618 188.338 63.507 187.709 66.3515 186.881H66.4176C66.4176 186.881 66.6492 186.815 66.7484 186.782C66.7815 186.749 66.8476 186.749 66.8807 186.716C69.2621 186.054 71.8419 185.127 74.4548 184.002C76.8032 183.042 79.1515 181.883 81.6982 180.46C85.8326 178.077 89.537 175.429 92.613 172.648C93.6052 171.787 94.5644 170.861 95.5235 169.834C88.0155 159.143 82.8228 146.697 79.7468 138.024C77.7292 132.364 76.3401 127.631 75.5463 124.652C75.5132 124.486 75.4471 124.321 75.414 124.155C74.951 124.254 74.4218 124.155 74.0249 123.824C73.3303 123.261 73.2311 122.202 73.7933 121.507L75.0502 119.951C75.2486 119.686 75.4802 119.521 75.7778 119.422C76.0755 119.322 76.3732 119.289 76.7039 119.422C77.3323 119.554 77.7954 120.05 77.9608 120.679C77.9608 120.746 79.5153 127.664 82.8559 136.932C83.1205 137.66 83.3851 138.388 83.6497 139.15C86.9241 148.087 92.183 160.103 99.6248 170.033C99.6579 170.033 99.6579 170.066 99.6579 170.066L99.691 170Z" fill="#1E1E1E"/>
<path d="M72.9004 110.55C72.9004 110.55 72.8343 110.848 72.8012 110.98C72.6027 111.741 71.9412 112.271 71.1805 112.271C71.0482 112.271 70.9159 112.238 70.7836 112.205C69.8906 112.006 69.3614 111.112 69.5598 110.219C69.5598 110.153 69.5929 110.086 69.5929 110.02C72.8343 96.1508 69.9567 81.6194 67.9061 74.2048C67.0792 71.1595 63.9702 69.3058 60.795 70.0341C57.4875 70.7954 54.3123 71.987 51.2694 73.1125C49.8472 73.609 48.5242 74.1055 47.2343 74.5358C43.133 75.926 35.4596 77.6473 31.2922 78.541C29.6384 78.9051 28.4808 80.4278 28.5139 82.149C28.6131 85.0619 29.7377 87.4452 31.656 89.1996C33.5744 90.9208 36.0881 91.8145 38.701 91.6159C48.7227 90.9539 54.6761 88.041 54.7423 88.0079C55.5361 87.6107 56.5283 87.9417 56.9583 88.7692C57.3552 89.5637 57.0245 90.5567 56.1976 90.987C56.0653 91.0532 54.5438 91.7814 51.8648 92.6421C50.9056 92.9069 49.8141 93.2048 48.5573 93.5027C45.9444 94.0985 42.703 94.6612 38.9325 94.926C35.4266 95.1577 32.0198 93.9992 29.4069 91.649C26.8271 89.2989 25.3387 86.055 25.2395 82.5463C25.1403 78.9051 27.3894 75.9922 30.5976 75.2971C33.3759 74.7013 37.7087 73.7414 41.4462 72.7814C42.6038 72.4504 43.7284 72.1525 44.6875 71.8546C45.2167 71.6891 45.7128 71.5567 46.1759 71.3912C47.4327 70.994 48.7557 70.4975 50.1118 70.001C53.1216 68.8755 56.5283 67.6177 60.0674 66.8233C60.8281 66.6577 61.5888 66.5584 62.3164 66.5915C63.5071 66.5915 64.6317 66.8233 65.6901 67.2867C68.2699 68.2797 70.3206 70.4313 71.1144 73.3111C73.1981 81.0236 76.2079 96.0515 72.9004 110.55Z" fill="#1E1E1E"/>
<path d="M65.7229 67.7189C65.7229 68.6126 64.9621 69.3739 64.0691 69.3739C63.1761 69.3739 62.4154 68.6126 62.4154 67.7189C62.4154 67.4541 62.3823 67.0569 62.3161 66.5934C61.8531 63.2502 59.8355 55.1074 56.8588 44.5481C55.8665 40.9732 55.1389 34.3861 54.5105 28.5603C54.2459 26.1771 54.0143 23.86 53.7497 21.9401C53.4851 19.8548 51.666 18.2659 49.5162 18.2659C46.1425 18.2659 43.1988 19.5569 41.049 21.8739C38.866 24.191 37.7746 27.2363 37.973 30.414C39.7591 58.9471 43.3642 69.0098 44.6872 71.8565C45.018 72.5516 45.2164 72.8164 45.2164 72.8164C45.7456 73.5116 45.6133 74.5377 44.9187 75.1004C44.6211 75.3321 44.2572 75.4645 43.8934 75.4645C43.3973 75.4645 42.9673 75.2659 42.6366 74.8687C42.5043 74.7032 42.0412 74.1074 41.4459 72.7833C40.4206 70.4994 38.9322 65.9645 37.51 57.3914C37.3115 56.3321 37.1461 55.2067 36.9808 53.9819C36.0877 47.9907 35.2939 40.3443 34.6655 30.6126C34.434 26.5743 35.8562 22.5691 38.6345 19.6231C41.4128 16.6109 45.1833 14.9889 49.2516 14.9558C53.3198 14.9558 56.5611 17.7694 57.0242 21.5098C57.2888 23.4628 57.5534 25.7799 57.818 28.1962C58.4133 33.8896 59.1079 40.3443 60.0671 43.6544C61.6877 49.4471 65.4252 62.9854 65.6898 67.2886C65.7229 67.4541 65.7229 67.5865 65.7229 67.7189Z" fill="#1E1E1E"/>
<path d="M51.8647 92.6456C52.0631 94.7309 51.3024 96.8494 49.781 98.3059C49.3841 98.7031 48.9541 99.0341 48.491 99.2989L41.9753 103.039L39.7923 104.297C38.8001 104.86 37.6755 105.158 36.5841 105.158C35.0957 105.158 33.6404 104.661 32.4828 103.701C32.2182 103.47 31.9536 103.205 31.7221 102.94C31.2259 102.377 30.7298 101.781 30.2668 101.186C23.4864 92.6787 19.6166 82.1856 17.4999 74.6717C17.2022 73.6787 17.0699 72.6525 17.0699 71.6595C17.0368 70.3355 17.2683 69.0445 17.7314 67.8529C18.5252 65.4696 20.1128 63.318 22.3619 61.8616C28.3484 57.9557 35.1619 54.8111 36.981 53.9835C37.2456 53.8842 37.4109 53.7849 37.444 53.7849C38.2709 53.4208 39.2631 53.818 39.627 54.6456C39.9908 55.4731 39.5939 56.4661 38.767 56.8302C38.767 56.8302 38.304 57.0288 37.5102 57.393C34.9965 58.5515 29.2084 61.3651 24.181 64.609C21.105 66.6282 19.7159 70.3024 20.675 73.778C22.428 80.0672 26.4962 91.8512 34.0373 100.59C34.1035 100.656 34.1696 100.689 34.2027 100.755C35.1949 101.881 36.8487 102.179 38.1386 101.417L46.8373 96.4191C47.8957 95.8233 48.5241 94.6647 48.5572 93.5062C48.6233 93.0428 48.5572 92.5463 48.3587 92.0829C48.028 91.2222 48.4249 90.2623 49.2848 89.9313C50.1117 89.6003 51.0709 89.9975 51.4347 90.8581C51.6662 91.4208 51.7985 92.0498 51.8647 92.6456Z" fill="#1E1E1E"/>
<path d="M33.64 102.872L32.4824 103.699L23.7837 109.79C22.6922 110.551 21.4023 110.948 20.1454 110.948C18.5247 110.948 16.9041 110.319 15.6472 109.161C13.3981 107.042 11.4467 104.924 9.79298 102.872C7.27928 99.8264 5.32787 96.8805 3.87257 94.3317C3.0457 92.9414 2.3842 91.6505 1.855 90.492C-0.195641 86.1226 0.598156 80.8926 3.90565 77.4832C10.7852 70.3003 17.0695 68.0163 17.3341 67.917C17.4664 67.917 17.5986 67.8508 17.7309 67.8508C18.4586 67.7515 19.1862 68.1818 19.4508 68.9101C19.7485 69.7707 19.3185 70.7306 18.4586 71.0285C18.4255 71.0616 17.9294 71.2271 17.0695 71.6575C14.9857 72.6836 10.7521 75.1331 6.28704 79.7672C3.93872 82.2167 3.37645 85.924 4.86482 89.0686C6.94854 93.471 10.9175 100.124 17.9294 106.745C19.0209 107.771 20.6746 107.936 21.8984 107.076L30.2663 101.184L31.7216 100.157C32.4824 99.6609 33.5077 99.8265 34.0369 100.588C34.5661 101.316 34.3676 102.342 33.64 102.872Z" fill="#1E1E1E"/>
<path d="M31.9537 139.848C31.656 140.179 31.2261 140.345 30.7961 140.345C30.3661 140.345 29.9361 140.179 29.6385 139.848C29.1754 139.385 28.6793 138.888 28.2493 138.425C27.5548 137.696 26.8933 137.001 26.2648 136.306C25.471 135.446 24.7434 134.585 24.0157 133.724C8.43747 115.386 4.43541 97.4455 3.87313 94.334C3.80698 94.1023 3.77391 93.9699 3.77391 93.9037C3.60853 93.01 4.23696 92.1494 5.12998 92.017C5.98993 91.8515 6.88295 92.4804 7.01525 93.3741C7.04832 93.4734 7.67675 97.1807 9.79354 102.874C12.5388 110.421 17.7977 121.543 27.3563 132.566C28.7785 134.221 30.333 135.876 31.9537 137.498C32.0529 137.597 32.1191 137.696 32.1522 137.796C32.6152 138.425 32.516 139.285 31.9537 139.848Z" fill="#1E1E1E"/>
<path d="M42.8356 118.728C42.108 118.728 41.4465 118.265 41.248 117.536C37.0806 103.402 47.3669 96.1199 47.4992 96.0537C48.2599 95.5241 49.2852 95.7227 49.8144 96.484C50.3436 97.2454 50.1452 98.2715 49.3844 98.768C49.0537 98.9997 40.9503 104.826 44.4232 116.609C44.6878 117.47 44.1917 118.397 43.2986 118.662C43.1333 118.662 43.001 118.728 42.8356 118.728Z" fill="#1E1E1E"/>
<path d="M76.6712 121.971L75.8113 119.389L72.9007 110.551L72.7353 110.087C72.5368 109.458 71.9746 108.995 71.28 108.962C70.6185 108.896 69.9901 109.26 69.6924 109.856C69.6924 109.922 69.6262 109.955 69.5932 110.021C64.9627 119.058 42.6371 134.516 32.1524 137.793C30.8294 138.223 29.7379 138.455 28.8449 138.455H28.2495C27.5219 138.455 26.9927 138.356 26.6289 138.289H26.5297C25.8682 138.124 25.7028 137.892 25.7028 137.892C25.6036 137.66 25.8351 137.065 26.2651 136.37C26.5627 135.906 26.9266 135.41 27.3565 134.979C28.018 134.317 27.9849 133.258 27.3565 132.629C26.695 132 25.6366 132 25.0082 132.629C24.8428 132.828 24.4459 133.225 24.016 133.788C23.0568 135.079 21.833 137.23 22.6599 139.15C23.156 140.309 24.1152 140.971 25.2067 141.335L25.9674 142.295L28.2826 145.207L30.7963 148.352L32.4831 150.471C32.8139 150.868 33.2769 151.099 33.7731 151.099C33.8723 151.099 33.9715 151.099 34.0707 151.099H34.1369L34.8315 150.967C56.6278 146.664 71.8092 129.352 75.5797 124.718C76.0759 124.089 76.3735 123.692 76.4397 123.592C76.7704 123.162 76.8366 122.599 76.6712 122.07V122.004V121.971ZM34.4346 147.558L29.771 141.732C39.495 140.706 62.6805 124.95 70.6846 114.424L73.2645 122.169C70.3539 125.81 55.404 143.321 34.4346 147.558Z" fill="#1E1E1E"/>
<path d="M35.393 149.049C35.2276 148.155 34.3346 147.593 33.4416 147.758L30.7956 148.288L28.315 148.784C27.6865 148.917 27.4219 148.884 27.3889 148.884C27.1574 148.387 27.5542 146.831 28.2819 145.143C28.5796 144.382 28.9765 143.62 29.3734 142.892C29.8364 142.098 29.5387 141.105 28.778 140.641C27.9842 140.178 26.9589 140.443 26.4959 141.237C26.3305 141.502 26.1651 141.833 25.9667 142.23C24.7429 144.613 23.1222 148.619 24.7098 150.836C24.9413 151.167 25.2721 151.499 25.7682 151.763C26.2313 152.028 26.8266 152.194 27.6204 152.194C28.0173 152.194 28.4803 152.127 28.9765 152.028L29.9687 151.83L34.07 151.002H34.1362C34.9961 150.77 35.5914 149.943 35.393 149.049Z" fill="#1E1E1E"/>
<path d="M33.1627 2.2771C29.3542 4.34455 26.7682 8.92694 24.6433 12.5173C19.6378 20.9749 19.965 30.991 19.7782 40.5185" stroke="#1E1E1E" stroke-width="2.95537" stroke-linecap="round"/>
<path d="M20.1752 4.12563C14.2083 10.9317 11.7473 19.9845 10.552 28.7275" stroke="#1E1E1E" stroke-width="2.95537" stroke-linecap="round"/>
<path d="M74.8112 48.7585C74.8112 35.7901 76.4542 22.3699 68.6926 11.282" stroke="#1E1E1E" stroke-width="2.95537" stroke-linecap="round"/>
<path d="M79.2322 12.2083C84.108 17.6259 84.0113 25.6514 83.5608 32.4085" stroke="#1E1E1E" stroke-width="2.95537" stroke-linecap="round"/>
</svg>
